<?xml version="1.0" encoding="utf-8"?>
<!-- Generator: Adobe Illustrator 16.0.0, SVG Export Plug-In . SVG Version: 6.00 Build 0)  -->
<!DOCTYPE svg PUBLIC "-//W3C//DTD SVG 1.1//EN" "http://www.w3.org/Graphics/SVG/1.1/DTD/svg11.dtd">
<svg version="1.1" id="Layer_1" xmlns="http://www.w3.org/2000/svg" xmlns:xlink="http://www.w3.org/1999/xlink" x="0px" y="0px"
	 width="800px" height="220px" viewBox="0 0 800 220" enable-background="new 0 0 800 220" xml:space="preserve">
<g>
	<defs>
		<rect id="SVGID_1_" x="-62.292" y="-157.737" width="960" height="560"/>
	</defs>
	<clipPath id="SVGID_2_">
		<use xlink:href="#SVGID_1_"  overflow="visible"/>
	</clipPath>
	<path clip-path="url(#SVGID_2_)" fill="#FFCF40" d="M419.556,158.695l-7.398-1.338c-0.549,0-2.851-0.967-6.903-2.9
		c-4.056-1.934-6.412-2.902-7.069-2.902c-0.55,0-1.096,0.264-1.644,0.781c-0.55,0.523-1.042,0.781-1.479,0.781
		c-2.082,0-3.123-5.205-3.123-15.619c0-4.313,0.547-6.471,1.645-6.471c0.765,0.301,1.751,1.043,2.958,2.23
		c1.204,1.193,2.081,1.785,2.63,1.785l19.232,5.801c2.191,0,4.795-1.373,7.81-4.127c3.013-2.752,4.521-5.541,4.521-8.369
		c0-2.377-1.782-5.539-5.343-9.482c-3.563-3.939-5.782-5.914-6.658-5.914c-1.536,0-3.233-0.703-5.096-2.119
		c-1.864-1.412-3.288-2.12-4.274-2.12c-5.041,0-9.533-3.459-13.479-10.376c-3.945-6.918-5.918-14.092-5.918-21.534
		c0-4.461,1.04-8.328,3.123-11.601c2.081-3.271,4.438-5.69,7.068-7.252s5.808-2.79,9.535-3.682c3.725-0.893,6.629-1.413,8.711-1.562
		c2.081-0.147,4.164-0.223,6.248-0.223c12.054,0,18.082,1.934,18.082,5.801V73.01c0,1.339-0.986,2.008-2.96,2.008
		c-8.768-4.907-15.122-7.362-19.067-7.362c-3.288,0-5.864,1.674-7.727,5.021c-1.865,3.345-2.795,7.25-2.795,11.713
		c0,0.597,0.355,1.601,1.069,3.013c0.711,1.416,1.45,2.197,2.219,2.343l17.261,4.239c4.383,1.043,8.713,4.909,12.986,11.604
		c4.274,6.695,6.411,12.869,6.411,18.521c0,0.15-0.221,0.971-0.658,2.455c-0.438,1.488-0.657,2.531-0.657,3.123
		c0,0.15,0.137,0.412,0.411,0.781c0.273,0.373,0.52,0.559,0.74,0.559c-0.879,0.891-1.919,3.568-3.124,8.033
		c-0.767,2.23-1.536,4.203-2.301,5.912c-0.769,1.713-1.727,3.199-2.877,4.463c-1.15,1.266-2.082,2.27-2.794,3.012
		c-0.714,0.746-1.948,1.49-3.699,2.232c-1.755,0.744-2.959,1.227-3.617,1.449c-0.657,0.225-2.136,0.635-4.438,1.229
		c-2.302,0.596-3.837,0.969-4.604,1.115L419.556,158.695z M394.075,78.142c0,2.828,0.629,6.399,1.891,10.711
		c1.259,4.318,2.82,6.471,4.686,6.471c0.217,0,2.08-1.858,5.588-5.578c0-2.377-0.192-3.978-0.575-4.798
		c-0.384-0.815-1.232-1.523-2.548-2.12c2.191,0,3.561-2.677,4.109-8.033c-0.328-0.446-0.878-0.742-1.644-0.892
		c-0.767-0.146-1.453-0.296-2.054-0.447c-0.604-0.145-0.905-0.368-0.905-0.669c0-0.145,0.575-0.592,1.727-1.337
		c1.15-0.744,2.354-1.709,3.616-2.901c1.258-1.19,2.055-2.455,2.383-3.793c2.739,0,4.111-0.594,4.111-1.786
		c0-1.486-0.77-2.231-2.303-2.231c-3.397,0-7.26,1.674-11.59,5.021C396.237,69.106,394.075,73.232,394.075,78.142 M400.157,146.199
		c0.547,1.639,3.014,3.164,7.397,4.576c4.382,1.414,7.506,2.119,9.37,2.119c0.987,0,1.479-0.447,1.479-1.34
		c-0.438-0.146-0.82-0.67-1.149-1.561c-0.329-0.895-0.603-1.709-0.822-2.455l-0.164-1.34h-10.028
		c-0.877-2.824-4.33-4.238-10.355-4.238c0,3.719,0.711,5.578,2.137,5.578C399.225,147.539,399.937,147.092,400.157,146.199
		 M421.364,108.936c0.656,0.15,2.107,1.115,4.355,2.9c2.245,1.785,3.534,2.678,3.863,2.678c1.094,0,2.738-0.67,4.932-2.008
		c2.19-1.34,3.616-2.678,4.274-4.016c0-2.678-1.892-4.759-5.672-6.248c-3.78-1.485-7.946-2.528-12.493-3.124
		c-4.549-0.592-6.934-0.966-7.151-1.116c-0.55-0.296-1.315-0.781-2.301-1.451c-0.987-0.669-1.837-1.3-2.549-1.896
		c-0.714-0.592-1.179-0.893-1.397-0.893c-1.754,0-3.451,1.417-5.096,4.24c0.658,1.935,1.809,2.901,3.452,2.901
		c0.657,0,1.562-0.257,2.713-0.781c1.151-0.519,2.163-0.781,3.041-0.781c-1.644,0.892-2.687,1.863-3.123,2.901
		c0.547,1.193,2.465,2.231,5.753,3.124c3.288,0.892,5.754,1.338,7.398,1.338V108.936z M416.432,59.399v1.339h16.11
		C429.362,59.846,423.994,59.399,416.432,59.399 M419.391,148.209c0,2.381,2.081,3.57,6.247,3.57c1.533,0,2.629-0.225,3.287-0.67
		c0.658-0.447,0.986-1.004,0.986-1.674s0.19-1.451,0.576-2.344c0.383-0.893,1.067-1.635,2.055-2.23c0,1.191,0.136,1.936,0.411,2.23
		c0.271,0.299,0.793,0.447,1.562,0.447c1.973,0,3.341-0.447,4.109-1.34c-0.329-0.592-1.315-1.563-2.959-2.9l1.973-2.455
		c0.328,0.895,1.04,1.34,2.136,1.34c1.316,0,2.328-0.893,3.042-2.678c0.711-1.785,1.069-3.643,1.069-5.578
		c0-1.34-0.111-2.305-0.329-2.9l-9.864,4.016c-0.549,0.746-0.96,1.785-1.231,3.123c-0.275,1.34-0.576,2.232-0.905,2.678
		l-12.164,6.473V148.209z M433.691,62.301c0.987,1.785,2.303,2.678,3.946,2.678l0.986-0.223c0-1.191-0.439-2.156-1.315-2.901
		c-0.878-0.744-1.808-1.116-2.794-1.116c-0.111,0-0.274,0.223-0.494,0.669C433.8,61.854,433.691,62.154,433.691,62.301
		 M441.254,111.836c-1.097,0-2.576,0.971-4.438,2.9c-1.864,1.936-2.904,3.275-3.124,4.018c1.205,0,2.739-0.336,4.604-1.004
		c1.862-0.67,3.506-1.004,4.932-1.004C443.227,113.475,442.569,111.836,441.254,111.836 M443.556,118.754h-0.165
		c-0.329,0-1.508,1.193-3.534,3.57c-2.028,2.381-3.041,3.871-3.041,4.463v2.008c1.424,0,2.467-0.033,3.123-0.111
		c0.658-0.072,1.563-0.258,2.713-0.559c1.15-0.295,1.973-0.926,2.466-1.896c0.493-0.965,0.739-2.191,0.739-3.682
		c0-2.082-0.274-3.27-0.821-3.57C444.596,118.832,444.103,118.754,443.556,118.754"/>
	<path clip-path="url(#SVGID_2_)" fill="#FFCF40" d="M457.396,204.08c6.466-0.893,8.993-2.797,8.993-5.92
		c-0.986,0-2.136,0.367-3.451,1.115c-1.315,0.742-5.699,9.363-5.668,8.488c0.25-7,0.243-7.971,0.243-9.158v-50.652
		c0-1.189-0.686-12.234-0.412-17.963c0.272-5.725,0.412-8.959,0.412-9.707c0-3.27-0.165-7.029-0.494-11.269
		c-0.329-4.24-0.493-9.183-0.493-14.839c0-7.732,0.055-12.346,0.164-13.835l-1.149-1.116c0.765-4.161,1.149-7.436,1.149-9.818
		c0-0.296-0.385-3.046-1.149-8.254c0-3.571,0.436-5.837,1.314-6.806c0.876-0.967,2.521-1.451,4.932-1.451
		c3.396,0,5.425,0.188,6.083,0.558c0.656,0.372,1.644,1.973,2.959,4.798c8.984-6.248,16.382-9.372,22.191-9.372
		c11.068,0,19.752,4.388,26.056,13.165c6.301,8.779,9.452,20.304,9.452,34.585v9.819c0,9.672-0.656,16.59-1.972,20.752
		c-1.315,4.316-4.332,9.818-9.043,16.512c-4.713,6.693-8.493,10.041-11.342,10.041c2.738-3.27,4.11-4.98,4.11-5.133
		c0-0.146-0.058-0.223-0.165-0.223l-8.877,7.588c-0.329,0.592-0.657,0.893-0.986,0.893c-0.221,0-0.851-0.264-1.892-0.781
		c-1.041-0.523-1.89-0.781-2.548-0.781c-1.643,0-3.179,1.188-4.603,3.57c-0.768-0.15-3.837-1.115-9.205-2.9
		c-0.878-2.826-3.288-4.24-7.233-4.24c-0.55,0-1.344,0.188-2.383,0.557c-1.043,0.375-1.562,0.709-1.562,1.004v44.184
		c0.656,2.377,0.985,4.98,0.985,7.809c0,2.232-3.616,3.348-10.849,3.348c-1.865,0-2.771,0.146-3.758,0L457.396,204.08z
		 M458.664,89.936c0.218,0.747,0.63,1.451,1.232,2.12c0.602,0.669,1.069,1.004,1.398,1.004c0.218,0,0.492-0.368,0.821-1.116
		c0.328-0.742,0.493-1.411,0.493-2.008H458.664z M459.65,62.492c0,0.299,0.246,1.264,0.739,2.9c0.494,1.638,0.905,2.531,1.233,2.678
		c2.08-2.083,3.123-3.717,3.123-4.909c0-0.893-0.521-1.674-1.562-2.343c-1.043-0.669-1.836-1.004-2.384-1.004
		c-0.11,0-0.329,0.335-0.658,1.004C459.814,61.487,459.65,62.044,459.65,62.492 M462.609,182.092v11.158
		c0,0.295,0.383,0.742,1.15,1.338c2.081,0,3.123-0.818,3.123-2.453c0-2.533-0.193-6.064-0.575-10.6
		c-0.385-4.541-0.575-8.072-0.575-10.6c0-3.424-1.207-5.133-3.616-5.133c-0.221,0-1.043,0.596-2.466,1.785h2.959
		c-1.314,1.785-1.973,3.271-1.973,4.463c0,0.297,0.493,1.822,1.479,4.574s1.532,4.201,1.644,4.354L462.609,182.092z
		 M464.254,131.439c-2.523,0-3.782,0.67-3.782,2.01c0.108,0.299,0.165,0.521,0.165,0.668c2.409-1.037,3.781-1.93,4.109-2.678
		H464.254z M463.76,118.945c-2.083,1.338-3.123,3.646-3.123,6.916C462.717,124.227,463.76,121.922,463.76,118.945 M465.732,67.624
		c-1.426,0-2.794,1.041-4.109,3.122h4.109V67.624z M464.746,142.373c-1.754,1.193-2.794,3.498-3.123,6.918
		c0.329,0,0.821,0.039,1.479,0.111c0.657,0.076,1.094,0.111,1.315,0.111c1.644,0,2.465-0.816,2.465-2.453
		C466.883,145.275,466.17,143.713,464.746,142.373 M461.623,154.646c0.437,0.445,0.986,1.412,1.644,2.9
		c0.658,1.486,1.479,2.305,2.466,2.455c0.876-1.191,1.315-2.828,1.315-4.91c-1.865,0-2.959-0.592-3.288-1.785
		C463.648,153.307,462.938,153.754,461.623,154.646 M467.706,121.621l-3.946,5.58c4.053,0,6.082-0.965,6.082-2.902
		c0-2.23-0.385-3.346-1.15-3.346C468.362,120.953,468.034,121.176,467.706,121.621 M465.732,103.771l-0.986,2.678h0.986V103.771z
		 M465.732,87.259c0.108,0.596,0.52,1.377,1.233,2.342c0.711,0.971,1.287,1.601,1.726,1.897c0.766-0.591,1.424-2.008,1.974-4.239
		c0.547-2.232,0.93-3.571,1.149-4.017h-4.108l0.985-1.339c-0.221-0.145-0.385-0.223-0.493-0.223c-0.657,0-1.232,0.708-1.727,2.12
		C465.979,85.216,465.732,86.366,465.732,87.259 M468.691,76.325c0.437,0.892,1.15,1.338,2.138,1.338c1.861,0,3.779-0.965,5.753-2.9
		c1.973-1.931,3.617-4.09,4.932-6.47c1.315-2.378,2.685-4.61,4.11-6.694c1.422-2.083,2.572-3.198,3.452-3.347
		c-0.658,1.785-0.987,2.754-0.987,2.901l0.987,2.677c0.765-0.593,1.726-1.151,2.877-1.673c1.149-0.521,2.137-1.116,2.958-1.785
		c0.822-0.67,1.562-1.748,2.22-3.236c-1.316-1.19-3.07-1.785-5.261-1.785c-3.728,0-6.74,0.746-9.041,2.231
		c-2.302,1.488-4.604,4.093-6.904,7.81c0.108,0.149,0.218,0.224,0.328,0.224c0.109,0,0.301-0.112,0.576-0.335
		c0.271-0.223,0.601-0.482,0.985-0.781c0.384-0.298,0.794-0.521,1.233-0.67v0.224c0.107,0.148,0.165,0.299,0.165,0.446
		c0,1.041-0.74,2.343-2.22,3.905c-1.479,1.56-3.123,3.088-4.932,4.572C470.253,74.467,469.128,75.582,468.691,76.325
		 M470.665,106.001c0.106,9.522,2.272,17.518,6.493,23.989c4.218,6.471,9.888,9.707,17.014,9.707c7.89,0,12.876-2.379,14.958-7.143
		c-0.549-0.295-0.821-1.188-0.821-2.678c0-2.08,0.547-3.123,1.645-3.123c0-1.338,0.411-3.012,1.231-5.021
		c0.823-2.008,1.233-3.604,1.233-4.797c0-0.742-0.164-1.818-0.492-3.234c-0.329-1.412-0.494-2.49-0.494-3.236
		c0-0.297,0.218-0.892,0.658-1.785l0.657-1.339c0-0.446-0.604-1.562-1.809-3.347c-1.208-1.785-1.809-2.973-1.809-3.57
		c0-0.592,0.191-1.373,0.576-2.343c0.383-0.965,0.576-1.596,0.576-1.897c-1.316-3.57-1.974-5.651-1.974-6.248v-3.793
		c0-1.931-0.714-3.755-2.137-5.467c-1.426-1.708-2.137-3.459-2.137-5.244c-0.769,0-1.783-0.368-3.042-1.116
		c-1.262-0.742-2.329-1.484-3.205-2.231c-0.878-0.742-1.372-1.188-1.48-1.339c-0.878,0-2.958,0.446-6.246,1.339v-1.562
		c-0.985,0-2.521,1.193-4.603,3.57c-2.083,2.382-3.616,3.57-4.603,3.57c-0.439,0-0.769-0.072-0.986-0.223l-2.959,5.802h-0.986
		c-0.77,0-1.837,3.09-3.205,9.26C471.348,98.678,470.665,103.179,470.665,106.001 M470.829,131.439l1.973,5.355
		c0.764,0,1.15-0.742,1.15-2.23C473.513,132.482,472.473,131.439,470.829,131.439 M482.993,148.621c-2.411,0-3.727,0.67-3.945,2.01
		h3.945V148.621z M495.158,151.746c-1.536-2.379-3.123-3.57-4.768-3.57c-1.536,0-2.466,1.191-2.795,3.57H495.158z M498.117,147.953
		l1.973,2.678c0.986-0.744,1.479-1.635,1.479-2.678H498.117z M502.719,58.251c-1.207,0-1.808,0.969-1.808,2.901h3.451
		C504.362,59.221,503.813,58.251,502.719,58.251 M517.35,71.862c-1.426,0-2.412,1.043-2.959,3.124h0.822
		c0.657,0.15,1.04,0.223,1.151,0.223c1.751,0,2.794-0.592,3.123-1.785C519.048,72.386,518.337,71.862,517.35,71.862 M514.391,87.259
		c0,0.892,0.493,1.338,1.479,1.338c4.383,0,6.576-1.188,6.576-3.57c0-1.339-0.329-2.377-0.986-3.124
		c-1.426,0.747-2.959,1.713-4.604,2.901C515.213,85.997,514.391,86.812,514.391,87.259 M518.501,110.465
		c0.107,0.301,0.765,0.82,1.972,1.563l1.974,1.338h0.492c0.549,0,0.958-1.746,1.233-5.244c0.272-3.492,0.412-6.282,0.412-8.368
		c0-1.188-0.193-2.454-0.577-3.793c-0.384-1.339-0.903-2.008-1.561-2.008c-0.88,1.193-1.727,2.12-2.549,2.789
		c-0.821,0.669-1.425,1.082-1.808,1.227c-0.386,0.151-0.714,0.413-0.986,0.781c-0.274,0.374-0.411,0.932-0.411,1.674h5.425
		c0.218,1.043,0.329,2.008,0.329,2.901C522.446,105.556,521.131,107.938,518.501,110.465 M517.35,123.184l3.123,4.018
		c1.423-1.34,2.137-3.42,2.137-6.248c0-0.146-0.056-0.52-0.163-1.117v-0.891C520.253,119.691,518.555,121.102,517.35,123.184
		 M519.65,133.895c-0.327,0.299-0.492,0.598-0.492,0.893c0,0.746,0.107,1.414,0.329,2.008l1.973-2.678
		C520.362,133.971,519.759,133.895,519.65,133.895"/>
	<path clip-path="url(#SVGID_2_)" fill="#FFCF40" d="M584.069,150.23c-0.879,0-2.111,0.746-3.698,2.23
		c-1.591,1.49-2.605,2.232-3.042,2.232c-5.482,3.422-10.027,5.131-13.646,5.131c-6.903,0-13.372-2.789-19.396-8.367
		c-6.029-5.578-9.043-13.572-9.043-23.986c0-1.932,0.411-5.021,1.233-9.262s1.562-7.324,2.219-9.26
		c2.411-4.758,6.905-8.29,13.479-10.599c6.576-2.304,12.411-4.162,17.508-5.579c5.096-1.411,7.645-3.604,7.645-6.582
		c0-4.463-1.068-8.218-3.206-11.269c-2.137-3.046-5.124-4.573-8.958-4.573c-2.412,0-5.508,1.153-9.289,3.457
		c-3.78,2.31-6.439,3.459-7.972,3.459c-2.853,0-4.274-3.939-4.274-11.825c0-8.776,5.697-13.165,17.096-13.165
		c1.424,0,3.889,0.372,7.397,1.116c3.506,0.745,5.918,1.115,7.233,1.115c0.328,0,0.93-0.035,1.808-0.111
		c0.875-0.074,1.533-0.112,1.972-0.112c2.739,0,4.11,1.415,4.11,4.24c2.63,0,3.946,1.339,3.946,4.017
		c3.065,0,5.26,3.423,6.574,10.262c1.316,6.845,1.974,13.243,1.974,19.191c0,3.871-0.439,9.522-1.315,16.958
		c-0.879,7.442-1.314,13.02-1.314,16.737c0,0.891,0.107,2.197,0.328,3.904c0.22,1.713,0.328,3.012,0.328,3.904
		c0,0.15-0.027,0.447-0.082,0.893c-0.056,0.447-0.082,0.82-0.082,1.115c0.547,1.49,0.876,2.309,0.986,2.455
		c0,1.043,0.575,1.896,1.727,2.566c1.15,0.67,2.438,1.191,3.862,1.563c1.423,0.373,2.713,1.115,3.864,2.23
		c1.15,1.117,1.726,2.566,1.726,4.352c0,6.398-1.373,10.635-4.108,12.719c-3.4-1.488-5.755-2.381-7.07-2.678
		c-1.097-0.295-3.07-1.783-5.918-4.463C585.821,151.568,584.287,150.23,584.069,150.23 M541.821,126.801
		c-0.328,0-0.768,0.301-1.315,0.893c-0.549,0.596-0.822,1.043-0.822,1.338l0.164,0.67c0.33,0,0.767-0.223,1.316-0.67
		c0.547-0.445,0.821-0.814,0.821-1.115v-0.445C541.875,127.174,541.821,126.951,541.821,126.801 M539.848,137.957
		c0.109,0.447,0.355,0.932,0.741,1.451c0.382,0.521,0.739,0.932,1.068,1.227c0.328,0.299,0.546,0.447,0.658,0.447
		c0.766,0,1.423-0.893,1.973-2.678c0.546-1.785,0.821-3.125,0.821-4.018C542.369,134.387,540.614,135.58,539.848,137.957
		 M541.821,117.205c-0.768,0-1.151,1.49-1.151,4.463c1.646,0,3.068-0.965,4.275-2.9
		C543.848,117.729,542.808,117.205,541.821,117.205 M546.918,124.123c0.328-0.445,0.492-1.189,0.492-2.232
		c0-0.145-0.274-0.223-0.822-0.223c-3.179,0-5.095,0.82-5.752,2.455H546.918z M545.272,129.256c-1.534,0-2.686,1.115-3.451,3.346
		C544.122,132.602,545.272,131.486,545.272,129.256 M543.794,114.305c0.218,0.445,0.876,1.043,1.973,1.785
		c1.094,0.746,1.81,1.115,2.138,1.115c0.218,0,0.656-0.557,1.314-1.674c0.657-1.115,0.985-1.896,0.985-2.342h-4.438
		c0.547-1.34,2.983-2.975,7.314-4.91c4.328-1.931,6.987-3.939,7.974-6.025h-0.657c-4.715,0-7.18,1.339-7.397,4.017
		c-0.551,0.3-1.315,0.669-2.302,1.115c-0.986,0.447-1.755,0.82-2.301,1.116c-0.55,0.301-1.151,0.708-1.81,1.227
		c-0.657,0.524-1.207,1.155-1.643,1.897C544.506,112.375,544.122,113.268,543.794,114.305 M547.41,138.85
		c-1.425,0-2.247,1.043-2.465,3.125C546.588,141.678,547.41,140.635,547.41,138.85 M547.904,62.761c0,2.231,0.382,3.869,1.15,4.909
		c1.203,0,3.149-0.558,5.835-1.674c2.686-1.115,4.411-2.417,5.179-3.905l1.643,1.785c0.108,0,0.467-0.297,1.07-0.892
		c0.6-0.594,1.068-0.893,1.396-0.893c1.205,0,2.655,0.335,4.356,1.004c1.697,0.67,3.259,1.005,4.686,1.005
		c0-3.422-0.604-5.133-1.809-5.133c-0.221,0-0.687,0.112-1.398,0.335c-0.713,0.223-1.231,0.335-1.562,0.335
		c-2.083-0.147-3.508-0.223-4.273-0.223C558.04,59.414,552.615,60.529,547.904,62.761 M549.712,127.246
		c0,9.969,3.452,14.951,10.356,14.951c3.178,0,7.204-1.301,12.082-3.906c4.875-2.6,7.315-5.762,7.315-9.482v-0.893
		c0-2.678-0.029-4.721-0.083-6.137c-0.055-1.412-0.221-3.27-0.493-5.578c-0.273-2.305-0.714-4.09-1.314-5.355
		c-0.604-1.261-1.507-2.377-2.712-3.347c-1.207-0.965-2.687-1.451-4.439-1.451c-0.55,0-1.371,0.335-2.465,1.005
		c-1.097,0.669-1.864,1.004-2.302,1.004c-0.769,0-1.618,0.334-2.548,1.004c-0.932,0.669-2.082,1.64-3.452,2.902
		c-1.371,1.266-2.219,2.045-2.547,2.342c-0.987,0.746-2.085,3.09-3.288,7.029C552.615,125.277,551.246,127.246,549.712,127.246
		 M550.862,149.115c0.22,0.15,0.711,0.484,1.48,1.004c0.764,0.521,1.45,0.967,2.055,1.338c0.601,0.373,1.067,0.559,1.397,0.559
		c0-0.742-0.411-1.709-1.234-2.9c-0.821-1.189-1.454-1.787-1.89-1.787C551.903,147.328,551.3,147.926,550.862,149.115
		 M559.083,152.908c1.421,1.191,2.244,1.785,2.464,1.785c0.987,0,1.479-1.412,1.479-4.24l-0.821-0.223
		C560.89,150.23,559.847,151.123,559.083,152.908 M567.793,98.685l-4.601,3.124l6.082-1.116L567.793,98.685z M574.369,144.652
		c-1.754,0-3.562,0.781-5.424,2.342c-1.865,1.563-2.795,3.535-2.795,5.914l7.069-2.455L574.369,144.652z M572.397,100.693
		c1.204,1.043,2.848,1.562,4.932,1.562c0.986,0,2.025-0.519,3.123-1.562c-1.644-1.635-3.123-2.455-4.438-2.455
		C574.15,98.238,572.944,99.058,572.397,100.693 M577.987,62.091c-0.987,0-1.866,0.558-2.631,1.674
		c-0.77,1.116-1.151,2.419-1.151,3.905c0.108,0,0.382,0.037,0.822,0.111c0.438,0.076,0.712,0.112,0.821,0.112
		c1.096,0,2.467-0.335,4.109-1.004c1.645-0.67,2.466-1.525,2.466-2.566C582.424,62.837,580.945,62.091,577.987,62.091
		 M576.342,143.313v4.686c1.094,0,2.081-0.705,2.96-2.119c0.876-1.41,1.314-2.936,1.314-4.574l-0.164-0.893v-1.115l-2.137,2.9
		l0.329,1.115H576.342z M580.945,89.759l-1.479,2.455l5.753-1.116L580.945,89.759z M580.452,73.693c0,0.446,0.218,0.97,0.657,1.562
		c0.438,0.597,0.93,0.892,1.479,0.892c2.739,0,4.11-1.338,4.11-4.014c0-1.04-0.304-2.232-0.903-3.571
		c-0.603-1.338-1.29-2.008-2.055-2.008L580.452,73.693z M583.246,108.949c0,1.641,0.247,3.793,0.74,6.471s0.74,4.836,0.74,6.471
		c0,1.641-0.166,3.426-0.493,5.355c2.408-0.74,4.164-4.016,5.261-9.818c1.094-5.801,1.643-11.971,1.643-18.52
		c0-3.866-0.164-6.544-0.494-8.033c-2.409,0-5.81,1.935-10.19,5.801c0.218,1.194,1.314,2.048,3.288,2.567
		c1.972,0.524,3.178,1.004,3.616,1.45c-0.438,0.893-0.879,1.601-1.316,2.12c-0.438,0.524-0.821,0.859-1.149,1.004
		c-0.33,0.15-0.632,0.374-0.904,0.669c-0.275,0.301-0.469,0.781-0.574,1.451C583.3,106.606,583.246,107.61,583.246,108.949
		 M588.507,77.263c-0.222,0.151-0.575,0.301-1.068,0.446c-0.493,0.151-0.851,0.301-1.068,0.447c-0.221,0.15-0.549,0.334-0.986,0.558
		c-0.438,0.223-0.769,0.412-0.986,0.557c-0.222,0.151-0.493,0.374-0.821,0.67c-0.33,0.301-0.577,0.636-0.741,1.004
		c-0.164,0.374-0.302,0.781-0.411,1.227c-0.108,0.447-0.164,0.971-0.164,1.562C584.341,83.734,586.424,81.581,588.507,77.263
		 M583.412,87.081l6.082,1.339l0.164-0.669c0.218-0.446,0.411-0.927,0.575-1.451c0.164-0.519,0.246-0.853,0.246-1.004
		c0-0.591-0.192-1.261-0.574-2.008c-0.387-0.742-0.688-1.116-0.905-1.116c-0.657,0-1.617,0.558-2.877,1.674
		C584.862,84.962,583.958,86.043,583.412,87.081 M583.412,136.396c0.218,1.043,0.764,1.561,1.643,1.561
		c0.218,0,0.821-0.557,1.81-1.674c0.984-1.115,1.479-1.896,1.479-2.342c0-0.447-0.222-0.67-0.658-0.67
		C585.712,133.271,584.287,134.314,583.412,136.396 M588.836,126.354c-0.879,0-1.726,0.559-2.549,1.674
		c-0.821,1.115-1.232,2.271-1.232,3.459c1.423,0,2.409-0.369,2.958-1.115C588.561,129.629,588.836,128.289,588.836,126.354
		 M587.028,141.975c0,0.445,0.135,0.893,0.41,1.338c0.272,0.447,0.519,0.67,0.74,0.67c1.861,0,2.794-1.932,2.794-5.801
		c-0.656,0-1.479,0.373-2.466,1.115C587.521,140.041,587.028,140.934,587.028,141.975 M588.836,146.438
		c0,1.338,0.382,2.307,1.15,2.9c0.876-0.742,1.314-1.709,1.314-2.9H588.836z M594.589,146.66c-1.207,0-1.809,1.115-1.809,3.348
		c1.862,0,2.96-0.52,3.288-1.563C595.519,147.258,595.025,146.66,594.589,146.66 M594.589,152.908c0,1.488,2.081,2.23,6.246,2.23
		c0-3.123-0.549-4.686-1.643-4.686C596.78,150.453,595.247,151.273,594.589,152.908"/>
	<path clip-path="url(#SVGID_2_)" fill="#FFCF40" d="M616.708,148.557v-93.27h17.26c1.315,0,1.973,0.595,1.973,1.785
		c0,0.447-0.273,1.934-0.821,4.463c-0.55,2.531-0.822,3.942-0.822,4.24l3.78-5.132c9.643-8.48,17.315-12.719,23.014-12.719
		c0.33,0.595,0.494,2.38,0.494,5.355c0,1.488-0.11,3.981-0.328,7.475c-0.221,3.496-0.33,6.213-0.33,8.145
		c0,0.892,0.109,2.084,0.33,3.57c0,0.149-1.809,0.93-5.425,2.341c-3.617,1.417-7.372,3.76-11.263,7.029
		c-3.891,3.275-6.055,7.219-6.492,11.827c-0.109,0.747-0.356,2.493-0.738,5.244c-0.386,2.755-0.741,5.505-1.069,8.256
		c-0.329,2.755-0.493,4.948-0.493,6.583c0,3.721,0.383,9.41,1.151,17.07c0.764,7.664,1.149,13.5,1.149,17.516
		c0,2.678-0.328,5.953-0.985,9.82l0.985,1.561c-0.109,0.893-1.535,1.598-4.273,2.119c-2.74,0.52-4.713,0.781-5.918,0.781
		c-1.098,0-1.755-0.521-1.973-1.563c-0.769,1.934-2.301,2.902-4.604,2.902c-0.328,0-0.985-0.188-1.971-0.559
		c-0.988-0.373-1.481-0.635-1.481-0.781L616.708,148.557z M620.817,133.607c0,0.15,0.328,1.563,0.985,4.24
		c0.33-0.447,0.905-1.189,1.726-2.232c0.822-1.037,1.479-1.896,1.974-2.566c0.494-0.668,1.041-1.449,1.645-2.342
		c0.601-0.893,1.039-1.674,1.315-2.344c0.271-0.668,0.411-1.227,0.411-1.674c-0.44-0.145-0.715-0.223-0.823-0.223
		C623.227,126.467,620.817,128.848,620.817,133.607 M624.927,97.681c-2.521,0-3.781,1.936-3.781,5.802h1.646l3.122-5.802H624.927z
		 M629.53,66.89c0,3.719-1.918,8.555-5.755,14.502c1.533-0.742,3.124-1.746,4.768-3.012c1.645-1.261,2.467-2.193,2.467-2.79V61.98
		l-9.207-1.562v4.463h0.658c0,1.042-0.14,2.085-0.411,3.124c-0.275,1.042-0.411,2.009-0.411,2.901c1.863,0,3.616-1.116,5.261-3.347
		l-5.097,6.916v2.9l1.315-1.785c0.766-1.339,1.562-2.6,2.384-3.791c0.822-1.19,1.645-2.306,2.466-3.347
		C628.79,67.413,629.309,66.89,629.53,66.89 M625.913,84.07c-1.755,0-2.904,0.446-3.452,1.339c-0.55,0.892-0.822,2.309-0.822,4.239
		c0,0.151,0.026,0.558,0.083,1.228c0.053,0.669,0.081,1.081,0.081,1.227L625.913,84.07z M628.379,108.838
		c-4.385,0.893-6.576,1.787-6.576,2.679v8.479l7.07-11.158H628.379z M621.803,146.104c0,1.488,0.33,3.348,0.988,5.578
		c1.533-1.039,2.958-2.602,4.272-4.686c1.315-2.08,2.245-4.24,2.794-6.473c-0.549,0.447-1.589,1.045-3.124,1.787
		c-1.534,0.744-2.739,1.414-3.615,2.008C622.239,144.916,621.803,145.51,621.803,146.104 M622.791,124.012
		c0.436,0.748,0.984,1.117,1.643,1.117c1.863,0,3.589-0.816,5.179-2.455c1.587-1.635,2.383-3.645,2.383-6.025
		c0-3.27-0.328-5.428-0.985-6.471c-0.112,0.301-1.234,2.119-3.371,5.467C625.502,118.99,623.884,121.781,622.791,124.012
		 M623.775,105.938v1.562c1.315-0.146,2.903-0.704,4.768-1.674c1.862-0.965,3.013-1.746,3.452-2.343
		c0.218-1.188,0.548-3.269,0.986-6.248c0.437-2.973,0.767-5.093,0.986-6.359c0.218-1.262,0.576-3.124,1.068-5.579
		c0.494-2.455,0.959-4.497,1.397-6.136c0.437-1.635,0.986-3.493,1.644-5.577c0.657-2.083,1.369-4.091,2.137-6.025
		c-7.014,7.886-12.492,16.588-16.438,26.106h0.658c3.945-1.339,6.464-2.232,7.562-2.678v1.116L623.775,105.938z M631.995,126.689
		c-0.657,1.34-1.808,3.348-3.452,6.025c-1.644,2.678-2.851,4.836-3.616,6.471c3.177,0,5.313-0.48,6.411-1.449
		c1.095-0.967,1.644-3.309,1.644-7.029C632.981,128.922,632.652,127.582,631.995,126.689 M633.968,152.574
		c-4.495,0-7.18,1.488-8.055,4.463h2.137c3.945,0,5.918-0.893,5.918-2.678V152.574z M632.981,141.641
		c-2.521,3.275-4.549,6.621-6.082,10.041h1.15c0.547,0,1.67-0.445,3.37-1.338c1.698-0.893,2.548-1.486,2.548-1.787L632.981,141.641z
		 M646.626,69.122l-4.932,6.916c0.547,0.15,0.877,0.223,0.986,0.223c1.205,0,2.19-0.48,2.958-1.451
		c0.767-0.965,1.151-2.192,1.151-3.68v-0.892C646.68,69.644,646.626,69.271,646.626,69.122 M650.078,61.312
		c1.751,0,2.63,1.638,2.63,4.909c0,0.595-0.058,1.488-0.164,2.678c-0.111,1.192-0.165,2.008-0.165,2.454
		c3.396-1.486,5.096-4.833,5.096-10.041c0-1.19-0.767-2.566-2.3-4.128c-1.537-1.562-2.303-2.641-2.303-3.236
		c0-0.147,0.108-0.37,0.33-0.669c-1.428,1.934-2.139,2.977-2.139,3.124v0.669l0.165,0.447c-0.657,0.892-1.726,1.749-3.207,2.566
		c-1.479,0.818-2.656,1.822-3.532,3.012c-0.88,1.192-1.315,2.977-1.315,5.356c0.986-0.298,2.137-1.563,3.452-3.794
		C647.94,62.427,649.092,61.312,650.078,61.312"/>
	<path clip-path="url(#SVGID_2_)" fill="#FFCF40" d="M726.777,155.121c-2.304-4.313-6.083-11.156-11.343-20.527
		c-5.262-9.373-9.947-16.434-13.14-21.6c-0.567-0.73,0.202,0.23-2.921-3.841c-3.029-3.949,0.595,0.406-3.678-4.679
		c-3.397-4.043,4.682-9.993,11.317-22.103c4.719-8.612-12.593,18.021-14.801,22.132c-0.065,0.123-0.21,13.38-0.31,13.354
		c7.307-7.307,6.596-3.652,7.174-2.232c0.602,1.49-1.018,3.24-4.524,8.723c0.108,0,5.894-5.611,6.497-6.059
		c0.602-0.447,1.013,3.809,1.234,3.809c0.105,0,0.492,0.668,1.148,2.008c0.658,1.338,1.041,2.309,1.151,2.9h-4.272
		c4.82,0.893,7.231,2.9,7.231,6.025c0,0.301-0.056,0.523-0.164,0.668c-0.109,0.152-0.273,0.303-0.494,0.447
		c-0.22,0.15-0.385,0.301-0.491,0.447c0.876,0,1.751,0.334,2.63,1.004c0.876,0.668,1.644,1.416,2.301,2.23
		c0.658,0.82,1.369,1.975,2.137,3.459c0.767,1.488,1.315,2.643,1.646,3.459c0.328,0.818,0.793,2.047,1.396,3.682
		c0.603,1.637,0.959,2.529,1.068,2.678c-0.22,0.596-0.328,1.043-0.328,1.338c0,1.785,0.765,2.678,2.301,2.678
		c-1.754,1.043-3.07,1.563-3.945,1.563c-1.425,0-2.85-1.039-4.273-3.123c-1.425-2.082-2.358-4.24-2.794-6.471
		c-0.223-0.895-2.137-4.354-5.754-10.377c-3.616-6.025-5.426-9.707-5.426-11.045c0-0.447-2.548-4.018-7.644-10.713
		c-5.095-6.693-7.643-10.632-7.643-11.825l1.148-1.562c0.658,0.596,1.863,1.45,3.618,2.566c1.751,1.116-0.511,6.81-0.287,6.569
		c12.053-12.891,10.003-12.671,10.003-12.671c0.546-0.296,2.29-3.54-0.336-2.461c-0.211,0.086,10.898-36.422,8.959-32.876
		c-9.578,17.513-14.479,35.837-15.874,37.534c-0.768-5.055-1.149-10.337-1.149-15.843c0-1.038,0.025-2.75,0.081-5.132
		c0.054-2.377,0.083-4.313,0.083-5.8c0-5.949-0.386-15.025-1.151-27.224c-0.768-12.196-1.151-21.345-1.151-27.446
		c0-2.973,0.055-5.205,0.166-6.694l-0.987-1.339h-13.15c-0.329,0-0.74,5.802-1.234,17.405c-0.491,11.603-0.738,20.455-0.738,26.554
		c0,3.71,0.083,1.149,0.083,2.488c0,0.149,0.052-0.58,0.052,5.105c0,2.196,0.687,5.795,0.687,6.242c0,0.299,0,2.213,0,0v32.353
		c0,26.928,0.382,46.86,1.151,59.801c0,0.447,0.328,1.416,0.986,2.902h11.179c1.973,0,2.958-8.256,2.958-24.77
		c0-1.93-0.029-4.758-0.081-8.479c-0.058-3.717-0.083-6.393-0.083-8.033h1.151l6.083,8.256c0.436,1.785,0.956,3.609,1.56,5.467
		c0.603,1.863,1.342,3.682,2.219,5.467c0.876,1.785,1.646,3.273,2.304,4.463c0.656,1.191,1.56,2.717,2.711,4.574
		c1.151,1.861,1.917,3.09,2.303,3.682c0.382,0.598,1.231,1.785,2.547,3.57l1.809,2.455c2.302,0,3.559,0.67,3.78,2.008h13.316
		c0.657,0,0.984-0.965,0.984-2.9C727.762,157.875,727.435,156.461,726.777,155.121 M681.077,91.973c0-1.931,0.821-2.901,2.466-2.901
		C683.543,90.712,682.722,91.677,681.077,91.973 M680.255,76.799l1.81-1.337v2.676L680.255,76.799z M680.913,118.08
		c0,0.893-0.222,1.338-0.658,1.338c-0.549,0-0.82-0.445-0.82-1.338s0.271-1.34,0.82-1.34
		C680.691,116.74,680.913,117.188,680.913,118.08 M681.241,42.883c0.107,0.3,0.247,0.595,0.412,0.893
		c0.164,0.299,0.299,0.857,0.411,1.673c0.105,0.819,0.164,1.823,0.164,3.013c0,4.463-2.083,6.694-6.246,6.694V30.164l5.095-2.901
		c0.657,4.166,0.987,8.257,0.987,12.273c0,0.447-0.33,1.339-0.987,2.678C681.077,42.363,681.131,42.586,681.241,42.883
		 M675.982,73.9v-4.017h2.3C678.282,71.371,677.515,72.71,675.982,73.9 M677.131,86.394l-1.148,1.339v-1.339H677.131z
		 M678.282,17.668c1.315,0,2.137,0.262,2.467,0.781c0.328,0.523,0.492,1.601,0.492,3.236c0,4.016-1.807,6.025-5.425,6.025
		C675.816,21.016,676.639,17.668,678.282,17.668 M678.118,98.89c-0.221,2.979-1.151,4.463-2.794,4.463
		C675.324,100.379,676.254,98.89,678.118,98.89 M677.625,141.732c-1.097,0-1.643-1.484-1.643-4.463c0-2.822,1.479-4.238,4.437-4.238
		c0,0.746-0.385,2.381-1.148,4.908C678.5,140.473,677.954,141.732,677.625,141.732 M678.94,158.914c0-2.973,0.712-5.131,2.137-6.471
		l0.987,2.678C682.064,157.652,681.021,158.914,678.94,158.914"/>
	<path clip-path="url(#SVGID_2_)" fill="#FFCF40" d="M726.758,11.057c0.116,0.233,0.272,0.435,0.409,0.651
		c0.801,1.231,1.616,2.452,2.41,3.688c-0.118,0.177-0.274,0.311-0.414,0.463c-2.624,2.774-5.258,5.535-7.877,8.314
		c0.077,0.211,0.196,0.397,0.3,0.592c0.707,1.298,1.412,2.596,2.119,3.894c0.095,0.179,0.209,0.347,0.268,0.547
		c-4.115,2.517-7.7,4.898-11.815,7.418c0.156-0.305,1.686-1.201,0.467-0.793c1.953-2.601,3.497-5.069,5.441-7.678
		c-1.021-1.102-2.038-2.21-3.059-3.314c-0.159-0.175-0.331-0.335-0.471-0.534c2.936-2.456,5.886-4.891,8.825-7.341
		c0.167-0.144,0.351-0.263,0.5-0.433c-1.011-1.466-2.042-2.914-3.061-4.374c-0.409-0.603-0.85-1.179-1.243-1.797
		c0.776-0.446,1.564-0.866,2.345-1.303c4.188-2.31,8.37-4.634,12.563-6.935c-0.103,0.168-0.233,0.306-0.36,0.448
		C731.656,5.4,729.205,8.226,726.758,11.057"/>
	<path clip-path="url(#SVGID_2_)" fill="none" stroke="#FFCF40" stroke-width="5" stroke-miterlimit="10" d="M688.407,105.542
		c1.117-2.708-1.334,4.089-0.293-2.819c2.563-17.003,20.528-49.36,21.143-50.757c2.015,0.488,12.753,18.761,17.581,20.082
		c0.403-0.412,38.671-45.772,40.843-48.053c0,0-38.086,62.124-38.527,62.476c-4.038-0.994-14.733-13.559-15.476-13.675
		C706.918,79.593,690.683,102.665,688.407,105.542z"/>
	<path clip-path="url(#SVGID_2_)" fill="#FFCF40" d="M705.962,67.275c0.112,0.057,0.232,0.091,0.349,0.135
		c0.67,0.248,1.343,0.488,2.012,0.74c0.005,0.103-0.016,0.201-0.026,0.301c-0.219,1.845-0.444,3.689-0.66,5.535
		c0.092,0.06,0.191,0.098,0.289,0.144c0.652,0.301,1.306,0.603,1.959,0.904c0.089,0.042,0.183,0.075,0.264,0.136
		c-0.876,2.179-1.584,4.15-2.458,6.329c-0.028-0.165,0.309-0.959-0.048-0.445c0.006-1.583-0.108-2.995-0.107-4.579
		c-0.719-0.133-1.438-0.27-2.155-0.405c-0.114-0.022-0.229-0.035-0.341-0.071c0.434-1.812,0.877-3.62,1.313-5.431
		c0.022-0.105,0.06-0.204,0.069-0.314c-0.82-0.279-1.644-0.544-2.466-0.819c-0.335-0.116-0.675-0.213-1.008-0.34
		c0.174-0.4,0.359-0.793,0.537-1.19c0.964-2.119,1.922-4.241,2.89-6.358c0.01,0.096-0.002,0.188-0.01,0.28
		C706.23,63.644,706.095,65.459,705.962,67.275"/>
	<path clip-path="url(#SVGID_2_)" fill="#FFCF40" d="M715.88,65.547c0.044,0.05,0.096,0.089,0.145,0.133
		c0.278,0.25,0.561,0.497,0.839,0.749c-0.018,0.051-0.047,0.095-0.071,0.142c-0.462,0.857-0.928,1.713-1.389,2.572
		c0.034,0.047,0.075,0.084,0.113,0.126c0.261,0.272,0.521,0.545,0.781,0.818c0.035,0.038,0.074,0.072,0.103,0.117
		c-0.848,0.894-1.572,1.719-2.418,2.613c0.018-0.085,0.335-0.408,0.062-0.226c0.309-0.771,0.525-1.482,0.831-2.254
		c-0.325-0.203-0.649-0.409-0.974-0.613c-0.051-0.033-0.104-0.061-0.152-0.1c0.561-0.8,1.125-1.597,1.688-2.396
		c0.03-0.046,0.068-0.088,0.094-0.14c-0.346-0.294-0.697-0.582-1.045-0.874c-0.142-0.121-0.288-0.234-0.425-0.36
		c0.16-0.162,0.326-0.318,0.489-0.477c0.879-0.848,1.755-1.698,2.636-2.544c-0.015,0.048-0.037,0.091-0.06,0.135
		C716.711,63.827,716.295,64.687,715.88,65.547"/>
	<path clip-path="url(#SVGID_2_)" fill="#FFCF40" d="M728.119,70.844c0.024,0.04,0.063,0.062,0.096,0.092
		c0.19,0.167,0.386,0.328,0.572,0.498c-0.05,0.078-0.11,0.152-0.167,0.228c-1.051,1.395-2.104,2.789-3.152,4.184
		c0.013,0.043,0.041,0.069,0.063,0.1c0.155,0.208,0.309,0.417,0.463,0.625c0.021,0.029,0.048,0.051,0.055,0.094
		c-1.532,1.665-2.879,3.169-4.41,4.835c0.07-0.123,0.638-0.731,0.206-0.334c0.814-1.191,1.485-2.251,2.299-3.443
		c-0.272-0.08-0.542-0.162-0.813-0.243c-0.042-0.013-0.089-0.019-0.124-0.043c1.135-1.377,2.273-2.75,3.409-4.126
		c0.064-0.079,0.133-0.155,0.193-0.238c-0.245-0.186-0.498-0.362-0.746-0.545c-0.1-0.078-0.21-0.141-0.303-0.227
		c0.287-0.306,0.577-0.607,0.864-0.911c1.544-1.623,3.087-3.248,4.631-4.869c-0.045,0.072-0.098,0.141-0.148,0.211
		C730.11,68.103,729.114,69.473,728.119,70.844"/>
	<path clip-path="url(#SVGID_2_)" fill="#FFCF40" d="M744.364,113.848c-0.066-0.24-0.084-0.484-0.124-0.725
		c-0.216-1.385-0.416-2.773-0.639-4.158c-0.198-0.05-0.395-0.046-0.591-0.065c-3.634-0.298-7.268-0.581-10.901-0.885
		c-0.079-0.2-0.113-0.407-0.164-0.612c-0.325-1.374-0.651-2.746-0.978-4.12c-0.047-0.187-0.072-0.38-0.158-0.56
		c-4.531,0.837-8.598,1.43-13.129,2.264c0.307,0.117,1.965-0.221,0.838,0.266c3.046,0.603,5.718,1.373,8.764,1.987
		c-0.022,1.434-0.039,2.869-0.06,4.307c-0.001,0.225-0.022,0.449,0.005,0.68c3.652-0.127,7.303-0.277,10.955-0.412
		c0.211-0.004,0.417-0.035,0.631-0.01c0.218,1.686,0.408,3.373,0.616,5.059c0.093,0.691,0.146,1.381,0.262,2.072
		c0.836-0.18,1.664-0.383,2.497-0.57c4.45-1.029,8.905-2.045,13.352-3.082c-0.179-0.055-0.36-0.07-0.542-0.09
		C751.454,114.744,747.909,114.299,744.364,113.848"/>
</g>
</svg>
