<?xml version="1.0" encoding="utf-8"?>
<!-- Generator: Adobe Illustrator 16.0.0, SVG Export Plug-In . SVG Version: 6.00 Build 0)  -->
<!DOCTYPE svg PUBLIC "-//W3C//DTD SVG 1.1//EN" "http://www.w3.org/Graphics/SVG/1.1/DTD/svg11.dtd">
<svg version="1.1" id="Layer_1" xmlns="http://www.w3.org/2000/svg" xmlns:xlink="http://www.w3.org/1999/xlink" x="0px" y="0px"
	 width="800px" height="220px" viewBox="0 0 800 220" enable-background="new 0 0 800 220" xml:space="preserve">
<g>
	<defs>
		<rect id="SVGID_1_" x="-63.02" y="-157.736" width="960" height="560"/>
	</defs>
	<clipPath id="SVGID_2_">
		<use xlink:href="#SVGID_1_"  overflow="visible"/>
	</clipPath>
	<path clip-path="url(#SVGID_2_)" fill="#FFFFFF" d="M85.741,126.742c0,5.664-1.253,10.391-3.755,14.176
		c-2.504,3.787-5.644,6.826-9.419,9.117c-3.777,2.291-7.913,3.93-12.41,4.916c-4.499,0.984-8.741,1.479-12.728,1.479
		c-2.971-0.064-5.855-0.318-8.655-0.764c-2.462-0.381-5.072-0.969-7.828-1.766c-2.759-0.795-5.241-1.957-7.446-3.484l1.018-21.766
		c3.055,1.848,6.152,3.279,9.292,4.297c3.138,1.02,6.024,1.781,8.655,2.291c3.055,0.572,6.024,0.922,8.91,1.049
		c2.374-0.953,4.22-2.305,5.536-4.057c1.315-1.75,1.974-3.705,1.974-5.871c0-1.844-0.573-3.801-1.719-5.868
		c-1.145-2.068-2.907-4.026-5.282-5.872c-2.377-1.781-5.199-3.93-8.464-6.444c-3.268-2.512-6.408-5.359-9.419-8.543
		c-3.013-3.182-5.559-6.713-7.637-10.596c-2.081-3.882-3.119-8.115-3.119-12.697c0-4.518,0.828-8.639,2.482-12.361
		c1.655-3.723,3.988-6.921,7.001-9.594c3.011-2.674,6.618-4.74,10.819-6.205c4.2-1.463,8.802-2.196,13.81-2.196
		c4.073,0,8.484,0.463,13.238,1.386c4.75,0.922,9.8,2.37,15.146,4.342l-2.037,22.242c-2.207-1.463-4.54-2.656-7-3.578
		c-2.462-0.922-4.753-1.639-6.873-2.148c-2.463-0.573-4.881-0.955-7.256-1.146c-3.225,0.446-5.981,1.705-8.273,3.771
		c-2.291,2.068-3.436,4.725-3.436,7.971c0,3.055,0.827,5.713,2.481,7.971c1.655,2.261,3.733,4.392,6.237,6.396
		c2.502,2.005,5.239,4.009,8.21,6.014c2.969,2.006,5.748,4.281,8.337,6.826c2.588,2.546,4.793,5.474,6.619,8.782
		C84.574,118.12,85.57,122.099,85.741,126.742"/>
	<path clip-path="url(#SVGID_2_)" fill="#FFFFFF" d="M142.132,155.516c0.593-3.182,1.102-6.459,1.528-9.832
		c0.423-3.373,0.805-6.746,1.145-10.119c0.338-3.373,0.637-6.682,0.891-9.928c0.255-3.246,0.465-6.331,0.637-9.26
		c0.338-6.808,0.592-13.522,0.763-20.142c0-5.473-0.298-9.816-0.891-13.031c-0.594-3.213-1.38-5.664-2.354-7.351
		c-0.977-1.685-2.101-2.782-3.373-3.293c-1.273-0.508-2.546-0.764-3.819-0.764c-1.698,0-3.309,0.208-4.837,0.62
		c-1.527,0.414-2.949,1.258-4.264,2.531c-1.316,1.273-2.504,3.07-3.564,5.393c-1.062,2.324-1.972,5.395-2.736,9.212
		s-1.336,8.481-1.718,13.985c-0.382,5.506-0.573,12.075-0.573,19.712v8.783c0,3.055,0.02,5.934,0.063,8.639
		c0.042,2.705,0.084,5.092,0.128,7.158c0.041,2.07,0.147,3.518,0.318,4.344l-28.766-0.189c0.424-11.646,0.72-23.182,0.891-34.604
		c0.169-11.422,0.255-22.958,0.255-34.605c0-10.436-0.064-20.794-0.191-31.072c-0.127-10.276-0.362-20.635-0.7-31.072l32.075-0.572
		c-0.509,4.264-0.977,8.257-1.4,11.98c-0.426,3.723-0.786,7.351-1.082,10.882c-0.299,3.532-0.531,7.032-0.7,10.501
		c-0.171,3.47-0.298,7.05-0.382,10.74c2.629-3.246,5.537-5.76,8.719-7.543c3.182-1.78,6.237-3.117,9.164-4.008
		c2.928-0.892,5.493-1.433,7.701-1.623c2.205-0.191,3.647-0.287,4.327-0.287c5.092,0,9.292,1.273,12.601,3.818
		c3.31,2.546,5.919,5.952,7.828,10.215c1.909,4.264,3.246,9.197,4.009,14.797c0.764,5.601,1.146,11.455,1.146,17.564
		c0,4.963-0.191,10.023-0.573,15.177c-0.382,5.157-0.827,10.215-1.336,15.18c-0.509,4.963-1.018,9.736-1.528,14.318
		c-0.508,4.582-0.934,8.781-1.273,12.6L142.132,155.516z"/>
	<path clip-path="url(#SVGID_2_)" fill="#FFFFFF" d="M258.831,102.323c0,7.766-0.468,14.575-1.4,20.429
		c-0.935,5.855-2.272,10.93-4.009,15.227c-1.741,4.295-3.819,7.859-6.238,10.691c-2.418,2.832-5.091,5.105-8.018,6.824
		c-2.928,1.719-6.09,2.926-9.483,3.629c-3.395,0.699-6.873,1.049-10.437,1.049s-6.981-0.285-10.246-0.859
		c-3.268-0.572-6.301-1.623-9.101-3.15s-5.368-3.594-7.701-6.205c-2.334-2.607-4.307-5.949-5.918-10.023
		c-1.613-4.07-2.864-8.939-3.755-14.605c-0.891-5.661-1.336-12.313-1.336-19.95c0-11.455,1.123-20.842,3.373-28.16
		c2.247-7.318,5.196-13.094,8.846-17.326c3.647-4.232,7.806-7.16,12.474-8.783c4.665-1.623,9.46-2.434,14.382-2.434
		c3.138,0,6.301,0.238,9.483,0.716c3.182,0.477,6.193,1.417,9.037,2.815c2.842,1.401,5.493,3.342,7.955,5.823
		c2.46,2.481,4.582,5.713,6.364,9.688c1.782,3.979,3.182,8.8,4.2,14.464C258.321,87.847,258.831,94.561,258.831,102.323
		 M231.465,103.087c0-6.108-0.298-11.121-0.891-15.035c-0.594-3.914-1.4-7.017-2.418-9.308c-1.019-2.29-2.25-3.866-3.691-4.725
		c-1.444-0.859-3.013-1.289-4.71-1.289c-1.953,0-3.649,0.621-5.091,1.862c-1.444,1.24-2.653,3.229-3.628,5.966
		c-0.976,2.737-1.718,6.253-2.227,10.549c-0.509,4.295-0.764,9.53-0.764,15.703c0,6.236,0.318,11.407,0.955,15.512
		c0.636,4.105,1.527,7.383,2.673,9.832c1.145,2.451,2.501,4.186,4.073,5.203c1.569,1.018,3.245,1.527,5.028,1.527
		c3.733,0,6.447-2.895,8.146-8.688C230.616,124.408,231.465,115.369,231.465,103.087"/>
	<path clip-path="url(#SVGID_2_)" fill="#FFFFFF" d="M332.569,70.46c1.697,5.602,3.31,11.488,4.837,17.661
		c1.356,5.282,2.8,11.185,4.328,17.708c1.527,6.522,2.927,13.063,4.2,19.616c0.593-3.755,1.145-7.636,1.655-11.646
		c0.509-4.009,0.996-8.002,1.463-11.979c0.466-3.977,0.891-7.875,1.273-11.694c0.382-3.817,0.742-7.446,1.082-10.882
		c0.764-8.02,1.442-15.878,2.037-23.579l30.292,0.763c-3.225,12.475-6.322,24.725-9.291,36.754
		c-1.273,5.154-2.609,10.485-4.009,15.989c-1.401,5.504-2.781,10.978-4.137,16.418c-1.358,5.441-2.673,10.709-3.946,15.799
		c-1.273,5.092-2.418,9.736-3.436,13.938l-29.148,0.191c-0.764-4.645-1.549-9.227-2.355-13.746
		c-0.807-4.52-1.571-8.879-2.291-13.078c-0.722-4.201-1.422-8.177-2.1-11.934c-0.68-3.754-1.317-7.19-1.909-10.309
		c-0.935,6.174-2.186,13.509-3.755,22.002c-1.571,8.496-3.5,17.455-5.791,26.873l-29.275,0.191
		c-0.681-4.201-1.508-8.83-2.482-13.891c-0.977-5.059-2.017-10.293-3.119-15.703c-1.103-5.407-2.271-10.865-3.5-16.37
		c-1.231-5.505-2.398-10.802-3.5-15.895c-2.717-11.965-5.559-24.184-8.528-36.657l30.548-0.19c0.763,7.445,1.61,15.051,2.545,22.815
		c0.338,3.31,0.72,6.825,1.145,10.548c0.424,3.723,0.87,7.526,1.337,11.408c0.466,3.882,0.891,7.796,1.273,11.739
		c0.382,3.948,0.784,7.8,1.209,11.553c0.679-3.245,1.378-6.505,2.1-9.785c0.72-3.277,1.4-6.491,2.037-9.642
		c0.636-3.15,1.229-6.204,1.782-9.164c0.551-2.959,1.082-5.742,1.591-8.352c1.102-6.111,2.164-11.934,3.182-17.471H332.569z"/>
	<path clip-path="url(#SVGID_2_)" fill="#FFFFFF" d="M418.828,158.695l-7.398-1.338c-0.549,0-2.851-0.967-6.903-2.9
		c-4.056-1.934-6.412-2.902-7.069-2.902c-0.55,0-1.096,0.264-1.644,0.781c-0.55,0.523-1.042,0.781-1.479,0.781
		c-2.082,0-3.123-5.205-3.123-15.619c0-4.313,0.546-6.471,1.644-6.471c0.765,0.301,1.751,1.043,2.958,2.23
		c1.204,1.193,2.081,1.785,2.63,1.785l19.232,5.801c2.191,0,4.795-1.373,7.809-4.127c3.014-2.752,4.521-5.541,4.521-8.369
		c0-2.377-1.783-5.539-5.344-9.481c-3.562-3.94-5.781-5.915-6.657-5.915c-1.536,0-3.233-0.703-5.096-2.119
		c-1.864-1.411-3.288-2.119-4.274-2.119c-5.041,0-9.533-3.459-13.479-10.376c-3.945-6.918-5.918-14.092-5.918-21.533
		c0-4.461,1.04-8.328,3.123-11.602c2.081-3.271,4.438-5.689,7.068-7.252s5.808-2.79,9.535-3.682
		c3.725-0.894,6.629-1.414,8.711-1.563c2.081-0.146,4.164-0.223,6.248-0.223c12.053,0,18.082,1.934,18.082,5.801v14.727
		c0,1.338-0.986,2.008-2.961,2.008c-8.768-4.907-15.121-7.362-19.066-7.362c-3.288,0-5.864,1.674-7.727,5.021
		c-1.865,3.346-2.795,7.25-2.795,11.713c0,0.598,0.355,1.602,1.069,3.014c0.711,1.416,1.45,2.197,2.219,2.343l17.261,4.239
		c4.383,1.043,8.713,4.908,12.986,11.604c4.273,6.694,6.41,12.869,6.41,18.521c0,0.15-0.221,0.971-0.658,2.455
		c-0.438,1.488-0.656,2.531-0.656,3.123c0,0.15,0.137,0.412,0.41,0.781c0.273,0.373,0.52,0.559,0.74,0.559
		c-0.879,0.891-1.918,3.568-3.123,8.033c-0.768,2.23-1.537,4.203-2.301,5.912c-0.77,1.713-1.727,3.199-2.877,4.463
		c-1.15,1.266-2.082,2.27-2.795,3.012c-0.713,0.746-1.947,1.49-3.699,2.232c-1.754,0.744-2.959,1.227-3.617,1.449
		c-0.656,0.225-2.135,0.635-4.438,1.229c-2.301,0.596-3.836,0.969-4.604,1.115L418.828,158.695z M393.348,78.142
		c0,2.828,0.629,6.399,1.891,10.711c1.259,4.318,2.82,6.472,4.686,6.472c0.217,0,2.08-1.858,5.588-5.578
		c0-2.377-0.192-3.978-0.575-4.798c-0.384-0.814-1.232-1.523-2.548-2.12c2.191,0,3.561-2.677,4.109-8.033
		c-0.328-0.446-0.878-0.741-1.644-0.892c-0.767-0.146-1.453-0.297-2.054-0.447c-0.604-0.145-0.905-0.368-0.905-0.669
		c0-0.146,0.575-0.592,1.727-1.337c1.15-0.744,2.354-1.709,3.616-2.901c1.258-1.19,2.055-2.454,2.383-3.793
		c2.739,0,4.111-0.594,4.111-1.786c0-1.486-0.77-2.23-2.303-2.23c-3.397,0-7.26,1.674-11.59,5.021
		C395.51,69.106,393.348,73.233,393.348,78.142 M399.43,146.199c0.547,1.639,3.014,3.164,7.397,4.576
		c4.382,1.414,7.506,2.119,9.37,2.119c0.987,0,1.479-0.447,1.479-1.34c-0.438-0.146-0.82-0.67-1.149-1.561
		c-0.329-0.895-0.603-1.709-0.822-2.455l-0.164-1.34h-10.028c-0.877-2.824-4.33-4.238-10.355-4.238c0,3.719,0.711,5.578,2.137,5.578
		C398.497,147.539,399.209,147.092,399.43,146.199 M420.637,108.937c0.656,0.149,2.107,1.115,4.355,2.899
		c2.244,1.785,3.533,2.678,3.863,2.678c1.094,0,2.738-0.67,4.932-2.008c2.189-1.34,3.615-2.678,4.273-4.016
		c0-2.679-1.891-4.759-5.672-6.248c-3.779-1.485-7.945-2.528-12.492-3.124c-4.549-0.592-6.934-0.967-7.151-1.116
		c-0.55-0.296-1.315-0.78-2.301-1.45c-0.987-0.67-1.837-1.301-2.549-1.896c-0.714-0.592-1.179-0.893-1.397-0.893
		c-1.754,0-3.451,1.416-5.096,4.239c0.658,1.935,1.809,2.901,3.452,2.901c0.657,0,1.562-0.258,2.713-0.781
		c1.151-0.52,2.163-0.781,3.041-0.781c-1.644,0.893-2.687,1.863-3.123,2.901c0.547,1.192,2.465,2.231,5.753,3.124
		s5.754,1.338,7.398,1.338V108.937z M415.704,59.399v1.34h16.11C428.635,59.847,423.266,59.399,415.704,59.399 M418.663,148.209
		c0,2.381,2.081,3.57,6.247,3.57c1.533,0,2.629-0.225,3.287-0.67c0.658-0.447,0.986-1.004,0.986-1.674s0.189-1.451,0.576-2.344
		c0.383-0.893,1.066-1.635,2.055-2.23c0,1.191,0.135,1.936,0.41,2.23c0.271,0.299,0.793,0.447,1.563,0.447
		c1.973,0,3.34-0.447,4.109-1.34c-0.33-0.592-1.316-1.563-2.959-2.9l1.973-2.455c0.328,0.895,1.039,1.34,2.135,1.34
		c1.316,0,2.328-0.893,3.043-2.678c0.711-1.785,1.068-3.643,1.068-5.578c0-1.34-0.111-2.305-0.328-2.9l-9.865,4.016
		c-0.549,0.746-0.959,1.785-1.23,3.123c-0.275,1.34-0.576,2.232-0.906,2.678l-12.163,6.473V148.209z M432.963,62.302
		c0.988,1.784,2.303,2.678,3.947,2.678l0.986-0.224c0-1.19-0.439-2.155-1.316-2.901c-0.877-0.743-1.807-1.115-2.793-1.115
		c-0.111,0-0.275,0.223-0.494,0.669C433.072,61.854,432.963,62.154,432.963,62.302 M440.525,111.836c-1.096,0-2.576,0.971-4.438,2.9
		c-1.865,1.936-2.904,3.276-3.125,4.019c1.205,0,2.74-0.336,4.604-1.004c1.863-0.67,3.506-1.005,4.932-1.005
		C442.498,113.475,441.842,111.836,440.525,111.836 M442.828,118.755h-0.166c-0.328,0-1.508,1.193-3.533,3.569
		c-2.029,2.381-3.041,3.871-3.041,4.463v2.008c1.424,0,2.467-0.033,3.123-0.111c0.658-0.072,1.563-0.258,2.713-0.559
		c1.15-0.295,1.973-0.926,2.465-1.896c0.494-0.965,0.74-2.191,0.74-3.682c0-2.081-0.275-3.269-0.822-3.569
		C443.867,118.833,443.375,118.755,442.828,118.755"/>
	<path clip-path="url(#SVGID_2_)" fill="#FFFFFF" d="M456.668,204.08c6.467-0.893,8.994-2.797,8.994-5.92
		c-0.986,0-2.137,0.367-3.451,1.115c-1.316,0.742-5.699,9.363-5.668,8.488c0.25-7,0.242-7.971,0.242-9.158v-50.652
		c0-1.189-0.686-12.234-0.412-17.963c0.273-5.725,0.412-8.958,0.412-9.706c0-3.271-0.164-7.03-0.494-11.27
		c-0.328-4.24-0.492-9.183-0.492-14.838c0-7.732,0.055-12.347,0.164-13.836l-1.15-1.115c0.766-4.162,1.15-7.437,1.15-9.818
		c0-0.296-0.385-3.046-1.15-8.254c0-3.571,0.436-5.838,1.314-6.807c0.877-0.967,2.521-1.451,4.932-1.451
		c3.396,0,5.426,0.188,6.084,0.559c0.656,0.372,1.643,1.973,2.959,4.798c8.984-6.248,16.381-9.372,22.191-9.372
		c11.068,0,19.752,4.389,26.055,13.165c6.301,8.779,9.453,20.304,9.453,34.585v9.819c0,9.672-0.656,16.59-1.973,20.752
		c-1.314,4.316-4.332,9.818-9.043,16.512c-4.713,6.693-8.492,10.041-11.342,10.041c2.738-3.27,4.111-4.98,4.111-5.133
		c0-0.146-0.059-0.223-0.166-0.223l-8.877,7.588c-0.328,0.592-0.656,0.893-0.986,0.893c-0.221,0-0.85-0.264-1.891-0.781
		c-1.041-0.523-1.891-0.781-2.549-0.781c-1.643,0-3.178,1.188-4.602,3.57c-0.768-0.15-3.838-1.115-9.205-2.9
		c-0.879-2.826-3.289-4.24-7.234-4.24c-0.549,0-1.344,0.188-2.383,0.557c-1.043,0.375-1.561,0.709-1.561,1.004v44.184
		c0.656,2.377,0.984,4.98,0.984,7.809c0,2.232-3.615,3.348-10.848,3.348c-1.865,0-2.771,0.146-3.758,0L456.668,204.08z
		 M457.936,89.937c0.219,0.746,0.631,1.451,1.232,2.119c0.602,0.67,1.07,1.004,1.398,1.004c0.219,0,0.492-0.367,0.822-1.115
		c0.328-0.742,0.492-1.411,0.492-2.008H457.936z M458.922,62.492c0,0.299,0.246,1.264,0.74,2.899
		c0.494,1.639,0.904,2.531,1.232,2.679c2.08-2.083,3.123-3.718,3.123-4.909c0-0.893-0.521-1.674-1.561-2.344
		c-1.043-0.668-1.836-1.004-2.385-1.004c-0.109,0-0.328,0.336-0.658,1.004C459.086,61.487,458.922,62.045,458.922,62.492
		 M461.881,182.092v11.158c0,0.295,0.383,0.742,1.15,1.338c2.082,0,3.123-0.818,3.123-2.453c0-2.533-0.193-6.064-0.574-10.6
		c-0.385-4.541-0.576-8.072-0.576-10.6c0-3.424-1.207-5.133-3.615-5.133c-0.221,0-1.043,0.596-2.467,1.785h2.959
		c-1.314,1.785-1.973,3.271-1.973,4.463c0,0.297,0.494,1.822,1.48,4.574s1.531,4.201,1.643,4.354L461.881,182.092z M463.525,131.439
		c-2.523,0-3.781,0.67-3.781,2.01c0.107,0.299,0.164,0.521,0.164,0.668c2.41-1.037,3.781-1.93,4.109-2.678H463.525z
		 M463.031,118.946c-2.082,1.338-3.123,3.646-3.123,6.915C461.988,124.227,463.031,121.923,463.031,118.946 M465.004,67.624
		c-1.426,0-2.793,1.041-4.109,3.122h4.109V67.624z M464.018,142.373c-1.754,1.193-2.793,3.498-3.123,6.918
		c0.33,0,0.822,0.039,1.48,0.111c0.656,0.076,1.094,0.111,1.314,0.111c1.645,0,2.465-0.816,2.465-2.453
		C466.154,145.275,465.441,143.713,464.018,142.373 M460.895,154.646c0.438,0.445,0.986,1.412,1.645,2.9
		c0.658,1.486,1.479,2.305,2.465,2.455c0.877-1.191,1.316-2.828,1.316-4.91c-1.865,0-2.959-0.592-3.289-1.785
		C462.92,153.307,462.211,153.754,460.895,154.646 M466.979,121.622l-3.947,5.579c4.053,0,6.082-0.965,6.082-2.902
		c0-2.229-0.385-3.345-1.15-3.345C467.635,120.954,467.307,121.177,466.979,121.622 M465.004,103.771l-0.986,2.679h0.986V103.771z
		 M465.004,87.259c0.109,0.596,0.52,1.377,1.234,2.342c0.711,0.972,1.287,1.602,1.725,1.897c0.766-0.591,1.424-2.008,1.975-4.239
		c0.547-2.231,0.93-3.57,1.148-4.017h-4.107l0.984-1.339c-0.221-0.145-0.385-0.223-0.492-0.223c-0.658,0-1.232,0.707-1.727,2.119
		C465.252,85.216,465.004,86.366,465.004,87.259 M467.963,76.325c0.438,0.893,1.15,1.338,2.139,1.338c1.861,0,3.779-0.965,5.752-2.9
		c1.973-1.931,3.617-4.09,4.932-6.47c1.316-2.378,2.686-4.61,4.111-6.694c1.422-2.082,2.572-3.197,3.451-3.347
		c-0.658,1.785-0.986,2.754-0.986,2.901l0.986,2.677c0.766-0.593,1.727-1.151,2.877-1.673s2.137-1.116,2.959-1.785
		c0.822-0.67,1.561-1.748,2.219-3.236c-1.316-1.189-3.07-1.785-5.26-1.785c-3.729,0-6.74,0.746-9.041,2.231
		c-2.303,1.488-4.604,4.093-6.904,7.81c0.107,0.149,0.217,0.225,0.328,0.225c0.109,0,0.301-0.112,0.576-0.335
		c0.271-0.224,0.6-0.481,0.984-0.781c0.385-0.298,0.795-0.521,1.234-0.67v0.224c0.107,0.148,0.164,0.299,0.164,0.446
		c0,1.041-0.74,2.343-2.219,3.905c-1.48,1.56-3.123,3.088-4.932,4.572C469.525,74.468,468.4,75.582,467.963,76.325 M469.938,106.002
		c0.105,9.521,2.271,17.518,6.492,23.988c4.219,6.471,9.889,9.707,17.014,9.707c7.891,0,12.877-2.379,14.959-7.143
		c-0.549-0.295-0.822-1.188-0.822-2.678c0-2.08,0.547-3.123,1.645-3.123c0-1.338,0.412-3.012,1.232-5.021
		c0.822-2.008,1.232-3.604,1.232-4.798c0-0.742-0.164-1.818-0.492-3.234c-0.328-1.412-0.494-2.49-0.494-3.236
		c0-0.296,0.219-0.892,0.658-1.784l0.658-1.34c0-0.445-0.604-1.562-1.809-3.347c-1.209-1.785-1.809-2.974-1.809-3.569
		c0-0.593,0.191-1.373,0.576-2.344c0.383-0.965,0.576-1.596,0.576-1.896c-1.316-3.57-1.975-5.651-1.975-6.248v-3.793
		c0-1.932-0.713-3.756-2.137-5.467c-1.426-1.709-2.137-3.459-2.137-5.244c-0.768,0-1.783-0.369-3.041-1.117
		c-1.262-0.741-2.33-1.483-3.205-2.23c-0.879-0.742-1.373-1.188-1.48-1.339c-0.879,0-2.959,0.446-6.246,1.339v-1.563
		c-0.986,0-2.521,1.193-4.604,3.57c-2.082,2.383-3.615,3.57-4.602,3.57c-0.439,0-0.77-0.072-0.986-0.223l-2.959,5.802h-0.986
		c-0.77,0-1.838,3.09-3.205,9.26C470.619,98.679,469.938,103.179,469.938,106.002 M470.102,131.439l1.973,5.355
		c0.764,0,1.15-0.742,1.15-2.23C472.785,132.482,471.744,131.439,470.102,131.439 M482.266,148.621c-2.412,0-3.727,0.67-3.945,2.01
		h3.945V148.621z M494.43,151.746c-1.535-2.379-3.123-3.57-4.768-3.57c-1.535,0-2.465,1.191-2.795,3.57H494.43z M497.389,147.953
		l1.973,2.678c0.986-0.744,1.479-1.635,1.479-2.678H497.389z M501.99,58.252c-1.207,0-1.807,0.97-1.807,2.901h3.451
		C503.635,59.222,503.086,58.252,501.99,58.252 M516.621,71.862c-1.426,0-2.412,1.043-2.959,3.124h0.822
		c0.658,0.149,1.041,0.223,1.152,0.223c1.75,0,2.793-0.592,3.123-1.784C518.32,72.386,517.609,71.862,516.621,71.862
		 M513.662,87.259c0,0.893,0.494,1.338,1.48,1.338c4.383,0,6.576-1.188,6.576-3.569c0-1.339-0.33-2.378-0.986-3.124
		c-1.426,0.746-2.959,1.713-4.604,2.9C514.484,85.997,513.662,86.812,513.662,87.259 M517.773,110.465
		c0.107,0.301,0.764,0.82,1.971,1.563l1.975,1.338h0.492c0.549,0,0.957-1.746,1.232-5.243c0.273-3.492,0.412-6.282,0.412-8.368
		c0-1.188-0.193-2.454-0.576-3.793c-0.385-1.339-0.904-2.008-1.561-2.008c-0.881,1.192-1.727,2.12-2.549,2.789
		s-1.426,1.082-1.809,1.228c-0.385,0.15-0.713,0.412-0.986,0.78c-0.273,0.374-0.41,0.933-0.41,1.675h5.424
		c0.219,1.043,0.33,2.008,0.33,2.9C521.719,105.556,520.402,107.938,517.773,110.465 M516.621,123.184l3.123,4.018
		c1.424-1.34,2.137-3.42,2.137-6.247c0-0.146-0.055-0.52-0.162-1.117v-0.891C519.525,119.692,517.826,121.103,516.621,123.184
		 M518.922,133.895c-0.326,0.299-0.492,0.598-0.492,0.893c0,0.746,0.107,1.414,0.33,2.008l1.973-2.678
		C519.635,133.971,519.031,133.895,518.922,133.895"/>
	<path clip-path="url(#SVGID_2_)" fill="#FFFFFF" d="M583.342,150.23c-0.879,0-2.111,0.746-3.699,2.23
		c-1.59,1.49-2.605,2.232-3.041,2.232c-5.482,3.422-10.027,5.131-13.646,5.131c-6.902,0-13.371-2.789-19.395-8.367
		c-6.029-5.578-9.043-13.572-9.043-23.986c0-1.932,0.41-5.021,1.232-9.261c0.822-4.241,1.563-7.325,2.219-9.261
		c2.412-4.758,6.906-8.29,13.48-10.599c6.576-2.305,12.41-4.162,17.508-5.579c5.096-1.411,7.645-3.604,7.645-6.582
		c0-4.463-1.068-8.218-3.207-11.269c-2.137-3.047-5.123-4.574-8.957-4.574c-2.412,0-5.508,1.154-9.289,3.457
		c-3.781,2.311-6.439,3.459-7.973,3.459c-2.852,0-4.273-3.938-4.273-11.824c0-8.775,5.697-13.165,17.096-13.165
		c1.424,0,3.889,0.372,7.396,1.116c3.506,0.744,5.918,1.115,7.234,1.115c0.328,0,0.93-0.035,1.807-0.111
		c0.875-0.074,1.533-0.112,1.973-0.112c2.738,0,4.109,1.415,4.109,4.24c2.631,0,3.947,1.339,3.947,4.017
		c3.064,0,5.26,3.424,6.574,10.262c1.316,6.846,1.973,13.244,1.973,19.191c0,3.871-0.439,9.521-1.314,16.958
		c-0.879,7.441-1.314,13.021-1.314,16.736c0,0.891,0.107,2.197,0.328,3.904c0.219,1.713,0.328,3.012,0.328,3.904
		c0,0.15-0.027,0.447-0.082,0.893c-0.057,0.447-0.082,0.82-0.082,1.115c0.547,1.49,0.875,2.309,0.986,2.455
		c0,1.043,0.574,1.896,1.727,2.566c1.15,0.67,2.438,1.191,3.861,1.563c1.424,0.373,2.713,1.115,3.865,2.23
		c1.15,1.117,1.725,2.566,1.725,4.352c0,6.398-1.373,10.635-4.107,12.719c-3.4-1.488-5.756-2.381-7.07-2.678
		c-1.098-0.295-3.07-1.783-5.918-4.463C585.094,151.568,583.559,150.23,583.342,150.23 M541.094,126.801
		c-0.328,0-0.768,0.301-1.316,0.893c-0.549,0.596-0.822,1.043-0.822,1.338l0.164,0.67c0.33,0,0.768-0.223,1.316-0.67
		c0.547-0.445,0.822-0.814,0.822-1.115v-0.445C541.146,127.174,541.094,126.951,541.094,126.801 M539.119,137.957
		c0.109,0.447,0.355,0.932,0.742,1.451c0.381,0.521,0.738,0.932,1.068,1.227c0.328,0.299,0.545,0.447,0.658,0.447
		c0.766,0,1.422-0.893,1.973-2.678c0.545-1.785,0.82-3.125,0.82-4.018C541.641,134.387,539.887,135.58,539.119,137.957
		 M541.094,117.206c-0.768,0-1.152,1.49-1.152,4.463c1.646,0,3.068-0.965,4.275-2.9C543.119,117.729,542.08,117.206,541.094,117.206
		 M546.189,124.123c0.328-0.445,0.492-1.189,0.492-2.231c0-0.145-0.273-0.223-0.822-0.223c-3.178,0-5.094,0.819-5.752,2.454H546.189
		z M544.545,129.256c-1.535,0-2.686,1.115-3.451,3.346C543.395,132.602,544.545,131.486,544.545,129.256 M543.066,114.305
		c0.217,0.445,0.875,1.043,1.973,1.785c1.094,0.746,1.809,1.116,2.137,1.116c0.219,0,0.656-0.558,1.314-1.675
		c0.658-1.115,0.986-1.896,0.986-2.342h-4.438c0.547-1.34,2.982-2.974,7.314-4.909c4.328-1.931,6.986-3.939,7.973-6.025h-0.656
		c-4.715,0-7.18,1.34-7.398,4.018c-0.551,0.3-1.314,0.669-2.301,1.115c-0.986,0.447-1.756,0.82-2.301,1.115
		c-0.551,0.301-1.152,0.709-1.811,1.228c-0.656,0.524-1.207,1.154-1.643,1.896C543.777,112.373,543.395,113.268,543.066,114.305
		 M546.682,138.85c-1.424,0-2.246,1.043-2.465,3.125C545.859,141.678,546.682,140.635,546.682,138.85 M547.176,62.761
		c0,2.231,0.383,3.869,1.15,4.91c1.203,0,3.15-0.559,5.836-1.674s4.41-2.418,5.178-3.906l1.643,1.785
		c0.109,0,0.467-0.297,1.07-0.892c0.6-0.594,1.068-0.894,1.396-0.894c1.205,0,2.656,0.336,4.357,1.004
		c1.697,0.671,3.258,1.006,4.686,1.006c0-3.422-0.605-5.133-1.809-5.133c-0.221,0-0.688,0.111-1.398,0.334
		c-0.713,0.224-1.232,0.336-1.563,0.336c-2.082-0.147-3.508-0.223-4.273-0.223C557.313,59.415,551.887,60.529,547.176,62.761
		 M548.984,127.246c0,9.969,3.451,14.951,10.355,14.951c3.178,0,7.205-1.301,12.082-3.906c4.875-2.6,7.316-5.762,7.316-9.482v-0.893
		c0-2.678-0.029-4.721-0.084-6.136c-0.055-1.412-0.221-3.27-0.492-5.579c-0.273-2.305-0.715-4.09-1.314-5.355
		c-0.605-1.261-1.508-2.376-2.713-3.347c-1.207-0.965-2.686-1.451-4.439-1.451c-0.549,0-1.371,0.336-2.465,1.006
		c-1.096,0.668-1.863,1.004-2.301,1.004c-0.77,0-1.619,0.334-2.549,1.004c-0.932,0.669-2.082,1.64-3.451,2.899
		c-1.371,1.268-2.219,2.047-2.547,2.344c-0.988,0.746-2.086,3.091-3.289,7.03C551.887,125.277,550.518,127.246,548.984,127.246
		 M550.135,149.115c0.219,0.15,0.711,0.484,1.48,1.004c0.764,0.521,1.449,0.967,2.055,1.338c0.6,0.373,1.066,0.559,1.396,0.559
		c0-0.742-0.41-1.709-1.234-2.9c-0.82-1.189-1.453-1.787-1.889-1.787C551.176,147.328,550.572,147.926,550.135,149.115
		 M558.355,152.908c1.42,1.191,2.244,1.785,2.463,1.785c0.988,0,1.48-1.412,1.48-4.24l-0.822-0.223
		C560.162,150.23,559.119,151.123,558.355,152.908 M567.064,98.686l-4.6,3.124l6.082-1.116L567.064,98.686z M573.641,144.652
		c-1.754,0-3.561,0.781-5.424,2.342c-1.865,1.563-2.795,3.535-2.795,5.914l7.07-2.455L573.641,144.652z M571.67,100.693
		c1.203,1.043,2.848,1.562,4.932,1.562c0.986,0,2.025-0.519,3.123-1.562c-1.645-1.635-3.123-2.455-4.439-2.455
		C573.422,98.238,572.217,99.059,571.67,100.693 M577.26,62.091c-0.988,0-1.867,0.559-2.631,1.675
		c-0.77,1.116-1.152,2.419-1.152,3.905c0.109,0,0.383,0.037,0.822,0.11c0.438,0.076,0.713,0.112,0.822,0.112
		c1.096,0,2.467-0.335,4.109-1.004c1.645-0.67,2.465-1.525,2.465-2.566C581.695,62.837,580.217,62.091,577.26,62.091
		 M575.613,143.313v4.686c1.094,0,2.082-0.705,2.961-2.119c0.875-1.41,1.314-2.936,1.314-4.574l-0.164-0.893v-1.115l-2.137,2.9
		l0.328,1.115H575.613z M580.217,89.759l-1.479,2.455l5.752-1.115L580.217,89.759z M579.725,73.693c0,0.446,0.217,0.97,0.656,1.562
		c0.438,0.598,0.93,0.893,1.479,0.893c2.74,0,4.111-1.338,4.111-4.014c0-1.041-0.305-2.232-0.904-3.571
		c-0.602-1.338-1.289-2.009-2.055-2.009L579.725,73.693z M582.518,108.949c0,1.639,0.248,3.793,0.74,6.471
		c0.494,2.679,0.74,4.837,0.74,6.472c0,1.64-0.166,3.425-0.492,5.354c2.408-0.74,4.164-4.016,5.26-9.817
		c1.094-5.802,1.643-11.971,1.643-18.521c0-3.866-0.164-6.544-0.494-8.032c-2.408,0-5.809,1.935-10.189,5.801
		c0.217,1.193,1.314,2.048,3.287,2.566c1.973,0.524,3.178,1.004,3.617,1.45c-0.439,0.894-0.879,1.601-1.316,2.12
		c-0.439,0.523-0.822,0.859-1.15,1.004c-0.33,0.15-0.631,0.374-0.904,0.669c-0.275,0.302-0.469,0.781-0.574,1.451
		C582.572,106.606,582.518,107.61,582.518,108.949 M587.779,77.263c-0.223,0.152-0.576,0.302-1.068,0.447
		c-0.494,0.15-0.852,0.301-1.068,0.446c-0.221,0.15-0.549,0.334-0.986,0.558c-0.439,0.224-0.77,0.412-0.986,0.558
		c-0.223,0.151-0.494,0.374-0.822,0.67c-0.33,0.301-0.576,0.636-0.74,1.004c-0.164,0.374-0.303,0.781-0.412,1.228
		c-0.107,0.446-0.164,0.971-0.164,1.562C583.613,83.734,585.695,81.581,587.779,77.263 M582.684,87.081l6.082,1.34l0.164-0.67
		c0.219-0.445,0.412-0.927,0.576-1.451c0.164-0.519,0.246-0.853,0.246-1.004c0-0.59-0.193-1.261-0.574-2.008
		c-0.387-0.742-0.688-1.115-0.906-1.115c-0.656,0-1.617,0.558-2.877,1.674C584.135,84.962,583.23,86.044,582.684,87.081
		 M582.684,136.396c0.219,1.043,0.764,1.561,1.643,1.561c0.219,0,0.822-0.557,1.811-1.674c0.984-1.115,1.479-1.896,1.479-2.342
		c0-0.447-0.223-0.67-0.658-0.67C584.984,133.271,583.559,134.314,582.684,136.396 M588.107,126.354
		c-0.879,0-1.725,0.559-2.549,1.674c-0.82,1.115-1.232,2.271-1.232,3.459c1.424,0,2.41-0.369,2.959-1.115
		C587.832,129.629,588.107,128.289,588.107,126.354 M586.301,141.975c0,0.445,0.135,0.893,0.41,1.338
		c0.271,0.447,0.518,0.67,0.74,0.67c1.861,0,2.793-1.932,2.793-5.801c-0.656,0-1.479,0.373-2.465,1.115
		C586.793,140.041,586.301,140.934,586.301,141.975 M588.107,146.438c0,1.338,0.383,2.307,1.15,2.9
		c0.877-0.742,1.314-1.709,1.314-2.9H588.107z M593.861,146.66c-1.207,0-1.809,1.115-1.809,3.348c1.861,0,2.959-0.52,3.287-1.563
		C594.791,147.258,594.297,146.66,593.861,146.66 M593.861,152.908c0,1.488,2.08,2.23,6.246,2.23c0-3.123-0.549-4.686-1.643-4.686
		C596.053,150.453,594.52,151.273,593.861,152.908"/>
	<path clip-path="url(#SVGID_2_)" fill="#FFFFFF" d="M615.98,148.557v-93.27h17.26c1.314,0,1.973,0.595,1.973,1.784
		c0,0.447-0.273,1.935-0.822,4.463c-0.549,2.531-0.822,3.943-0.822,4.24l3.781-5.131c9.643-8.48,17.314-12.72,23.014-12.72
		c0.33,0.595,0.494,2.38,0.494,5.354c0,1.488-0.111,3.981-0.328,7.476c-0.221,3.496-0.33,6.213-0.33,8.146
		c0,0.892,0.109,2.084,0.33,3.569c0,0.149-1.809,0.931-5.426,2.341c-3.617,1.418-7.371,3.76-11.262,7.029
		c-3.891,3.275-6.055,7.219-6.492,11.827c-0.109,0.747-0.357,2.493-0.738,5.243c-0.387,2.756-0.742,5.506-1.07,8.257
		c-0.328,2.755-0.492,4.947-0.492,6.582c0,3.722,0.383,9.41,1.15,17.07c0.764,7.664,1.15,13.5,1.15,17.516
		c0,2.678-0.328,5.953-0.986,9.82l0.986,1.561c-0.109,0.893-1.535,1.598-4.273,2.119c-2.74,0.52-4.713,0.781-5.918,0.781
		c-1.098,0-1.756-0.521-1.973-1.563c-0.77,1.934-2.301,2.902-4.604,2.902c-0.328,0-0.986-0.188-1.971-0.559
		c-0.988-0.373-1.482-0.635-1.482-0.781L615.98,148.557z M620.09,133.607c0,0.15,0.328,1.563,0.984,4.24
		c0.33-0.447,0.906-1.189,1.727-2.232c0.822-1.037,1.479-1.896,1.973-2.566c0.494-0.668,1.041-1.449,1.645-2.342
		c0.602-0.893,1.039-1.674,1.316-2.344c0.271-0.668,0.41-1.227,0.41-1.674c-0.439-0.145-0.715-0.223-0.822-0.223
		C622.498,126.467,620.09,128.848,620.09,133.607 M624.199,97.682c-2.521,0-3.781,1.937-3.781,5.802h1.645l3.123-5.802H624.199z
		 M628.803,66.891c0,3.72-1.918,8.556-5.756,14.503c1.533-0.742,3.125-1.746,4.768-3.013c1.645-1.261,2.467-2.192,2.467-2.79V61.981
		l-9.207-1.563v4.463h0.658c0,1.042-0.139,2.085-0.41,3.124c-0.275,1.042-0.412,2.009-0.412,2.901c1.863,0,3.617-1.116,5.262-3.348
		l-5.098,6.916v2.9l1.316-1.785c0.766-1.339,1.561-2.6,2.383-3.791c0.822-1.189,1.645-2.307,2.467-3.347
		S628.58,66.891,628.803,66.891 M625.186,84.071c-1.756,0-2.904,0.445-3.453,1.338s-0.822,2.31-0.822,4.24
		c0,0.15,0.027,0.558,0.084,1.228c0.053,0.669,0.08,1.081,0.08,1.228L625.186,84.071z M627.65,108.839
		c-4.385,0.893-6.576,1.786-6.576,2.677v8.481l7.07-11.158H627.65z M621.074,146.104c0,1.488,0.33,3.348,0.988,5.578
		c1.533-1.039,2.959-2.602,4.273-4.686c1.314-2.08,2.244-4.24,2.793-6.473c-0.549,0.447-1.588,1.045-3.123,1.787
		c-1.535,0.744-2.74,1.414-3.615,2.008C621.512,144.916,621.074,145.51,621.074,146.104 M622.063,124.012
		c0.436,0.748,0.984,1.117,1.643,1.117c1.863,0,3.59-0.816,5.18-2.455c1.586-1.634,2.383-3.644,2.383-6.025
		c0-3.27-0.328-5.428-0.986-6.471c-0.111,0.301-1.234,2.119-3.371,5.467C624.773,118.991,623.156,121.782,622.063,124.012
		 M623.047,105.938v1.563c1.316-0.146,2.904-0.704,4.768-1.674c1.863-0.965,3.014-1.746,3.453-2.344
		c0.217-1.188,0.547-3.269,0.986-6.248c0.436-2.973,0.766-5.092,0.986-6.358c0.217-1.263,0.576-3.124,1.068-5.579
		c0.494-2.455,0.959-4.497,1.396-6.136c0.438-1.636,0.986-3.493,1.645-5.577c0.656-2.083,1.369-4.092,2.137-6.025
		c-7.014,7.887-12.492,16.588-16.439,26.106h0.658c3.945-1.339,6.465-2.231,7.563-2.679v1.117L623.047,105.938z M631.268,126.689
		c-0.658,1.34-1.809,3.348-3.453,6.025c-1.643,2.678-2.85,4.836-3.615,6.471c3.176,0,5.313-0.48,6.41-1.449
		c1.096-0.967,1.645-3.309,1.645-7.029C632.254,128.922,631.924,127.582,631.268,126.689 M633.24,152.574
		c-4.496,0-7.18,1.488-8.055,4.463h2.137c3.945,0,5.918-0.893,5.918-2.678V152.574z M632.254,141.641
		c-2.521,3.275-4.549,6.621-6.082,10.041h1.15c0.547,0,1.67-0.445,3.369-1.338s2.549-1.486,2.549-1.787L632.254,141.641z
		 M645.898,69.122l-4.932,6.916c0.547,0.15,0.877,0.223,0.986,0.223c1.205,0,2.189-0.48,2.957-1.451
		c0.768-0.965,1.152-2.191,1.152-3.68v-0.893C645.951,69.644,645.898,69.271,645.898,69.122 M649.35,61.312
		c1.752,0,2.631,1.639,2.631,4.909c0,0.595-0.059,1.488-0.164,2.679c-0.111,1.191-0.166,2.008-0.166,2.453
		c3.396-1.486,5.096-4.832,5.096-10.041c0-1.189-0.766-2.565-2.299-4.127c-1.537-1.563-2.303-2.642-2.303-3.236
		c0-0.147,0.107-0.37,0.33-0.67c-1.428,1.935-2.139,2.978-2.139,3.125v0.668l0.164,0.447c-0.656,0.893-1.725,1.75-3.207,2.566
		c-1.479,0.818-2.656,1.822-3.531,3.012c-0.881,1.192-1.316,2.977-1.316,5.356c0.986-0.298,2.137-1.563,3.453-3.794
		C647.213,62.428,648.363,61.312,649.35,61.312"/>
	<path clip-path="url(#SVGID_2_)" fill="#FFFFFF" d="M726.049,155.121c-2.303-4.313-6.082-11.156-11.342-20.527
		c-5.262-9.373-9.947-16.433-13.141-21.6c-0.566-0.73,0.203,0.23-2.92-3.841c-3.029-3.949,0.594,0.406-3.678-4.679
		c-3.398-4.043,4.682-9.993,11.316-22.103c4.719-8.613-12.592,18.021-14.801,22.131c-0.064,0.123-0.209,13.381-0.309,13.355
		c7.307-7.31,6.596-3.653,7.174-2.233c0.602,1.491-1.018,3.241-4.525,8.723c0.109,0,5.895-5.61,6.498-6.058
		c0.602-0.447,1.012,3.809,1.234,3.809c0.105,0,0.492,0.667,1.148,2.007c0.658,1.338,1.041,2.309,1.15,2.9h-4.271
		c4.82,0.893,7.23,2.9,7.23,6.025c0,0.301-0.055,0.523-0.164,0.668c-0.109,0.152-0.273,0.303-0.494,0.447
		c-0.219,0.15-0.385,0.301-0.49,0.447c0.875,0,1.75,0.334,2.629,1.004c0.877,0.668,1.645,1.416,2.301,2.23
		c0.658,0.82,1.369,1.975,2.137,3.459c0.768,1.488,1.316,2.643,1.646,3.459c0.328,0.818,0.793,2.047,1.395,3.682
		c0.604,1.637,0.959,2.529,1.068,2.678c-0.219,0.596-0.328,1.043-0.328,1.338c0,1.785,0.766,2.678,2.301,2.678
		c-1.754,1.043-3.07,1.563-3.945,1.563c-1.424,0-2.85-1.039-4.273-3.123c-1.424-2.082-2.357-4.24-2.793-6.471
		c-0.223-0.895-2.137-4.354-5.754-10.377c-3.617-6.025-5.426-9.707-5.426-11.045c0-0.447-2.549-4.017-7.645-10.713
		c-5.094-6.692-7.643-10.632-7.643-11.825l1.148-1.562c0.658,0.597,1.863,1.45,3.619,2.565c1.75,1.117-0.512,6.81-0.287,6.569
		c12.053-12.891,10.002-12.671,10.002-12.671c0.547-0.296,2.291-3.539-0.336-2.461c-0.211,0.086,10.898-36.422,8.959-32.876
		c-9.578,17.513-14.479,35.837-15.873,37.534c-0.768-5.055-1.15-10.337-1.15-15.843c0-1.038,0.025-2.75,0.082-5.132
		c0.053-2.377,0.082-4.313,0.082-5.801c0-5.949-0.385-15.024-1.15-27.224c-0.768-12.196-1.152-21.345-1.152-27.446
		c0-2.973,0.055-5.205,0.166-6.693l-0.986-1.34h-13.15c-0.33,0-0.74,5.803-1.234,17.405c-0.492,11.603-0.738,20.455-0.738,26.554
		c0,3.711,0.082,1.149,0.082,2.488c0,0.149,0.053-0.58,0.053,5.105c0,2.195,0.686,5.795,0.686,6.242c0,0.299,0,2.213,0,0v32.353
		c0,26.928,0.383,46.859,1.152,59.801c0,0.447,0.328,1.416,0.986,2.902h11.178c1.973,0,2.959-8.256,2.959-24.77
		c0-1.93-0.029-4.758-0.082-8.479c-0.057-3.717-0.082-6.393-0.082-8.033h1.15l6.084,8.256c0.436,1.785,0.955,3.609,1.559,5.467
		c0.604,1.863,1.342,3.682,2.219,5.467s1.646,3.273,2.305,4.463c0.656,1.191,1.559,2.717,2.711,4.574
		c1.15,1.861,1.916,3.09,2.303,3.682c0.381,0.598,1.23,1.785,2.547,3.57l1.809,2.455c2.301,0,3.559,0.67,3.779,2.008h13.316
		c0.658,0,0.984-0.965,0.984-2.9C727.033,157.875,726.707,156.461,726.049,155.121 M680.35,91.974c0-1.932,0.82-2.901,2.465-2.901
		C682.814,90.712,681.994,91.678,680.35,91.974 M679.527,76.8l1.809-1.338v2.677L679.527,76.8z M680.186,118.081
		c0,0.893-0.223,1.338-0.658,1.338c-0.549,0-0.82-0.445-0.82-1.338s0.271-1.341,0.82-1.341
		C679.963,116.74,680.186,117.188,680.186,118.081 M680.514,42.884c0.107,0.3,0.246,0.595,0.412,0.893
		c0.164,0.299,0.299,0.857,0.41,1.673c0.105,0.819,0.164,1.823,0.164,3.013c0,4.463-2.082,6.694-6.246,6.694V30.165l5.096-2.901
		c0.656,4.166,0.986,8.257,0.986,12.272c0,0.447-0.33,1.34-0.986,2.678C680.35,42.363,680.402,42.587,680.514,42.884 M675.254,73.9
		v-4.017h2.301C677.555,71.372,676.787,72.71,675.254,73.9 M676.402,86.395l-1.148,1.339v-1.339H676.402z M677.555,17.669
		c1.314,0,2.137,0.262,2.467,0.78c0.328,0.523,0.492,1.601,0.492,3.236c0,4.017-1.807,6.024-5.426,6.024
		C675.088,21.017,675.91,17.669,677.555,17.669 M677.391,98.891c-0.221,2.979-1.152,4.463-2.795,4.463
		C674.596,100.38,675.525,98.891,677.391,98.891 M676.896,141.732c-1.096,0-1.643-1.484-1.643-4.463
		c0-2.822,1.479-4.238,4.438-4.238c0,0.746-0.385,2.381-1.148,4.908C677.771,140.473,677.227,141.732,676.896,141.732
		 M678.213,158.914c0-2.973,0.711-5.131,2.137-6.471l0.986,2.678C681.336,157.652,680.293,158.914,678.213,158.914"/>
	<path clip-path="url(#SVGID_2_)" fill="none" stroke="#FFFFFF" stroke-width="5" stroke-miterlimit="10" d="M687.68,105.543
		c1.117-2.708-1.334,4.089-0.293-2.819c2.563-17.002,20.527-49.359,21.143-50.756c2.014,0.487,12.752,18.76,17.58,20.081
		c0.404-0.411,38.672-45.772,40.844-48.053c0,0-38.086,62.124-38.527,62.476c-4.039-0.994-14.734-13.559-15.477-13.675
		C706.189,79.593,689.955,102.665,687.68,105.543z"/>
	<path clip-path="url(#SVGID_2_)" fill="#FFFFFF" d="M705.234,67.276c0.111,0.057,0.232,0.09,0.348,0.135
		c0.67,0.248,1.344,0.488,2.012,0.74c0.006,0.103-0.016,0.201-0.025,0.301c-0.219,1.845-0.445,3.689-0.66,5.535
		c0.092,0.06,0.191,0.098,0.289,0.144c0.652,0.301,1.305,0.603,1.959,0.903c0.088,0.043,0.182,0.076,0.264,0.137
		c-0.877,2.18-1.584,4.15-2.459,6.329c-0.027-0.165,0.309-0.959-0.047-0.445c0.006-1.583-0.109-2.995-0.107-4.579
		c-0.719-0.133-1.438-0.27-2.156-0.404c-0.113-0.022-0.229-0.035-0.34-0.071c0.434-1.812,0.877-3.62,1.313-5.431
		c0.023-0.105,0.061-0.205,0.07-0.314c-0.82-0.279-1.645-0.544-2.467-0.818c-0.334-0.117-0.674-0.214-1.008-0.341
		c0.174-0.399,0.359-0.793,0.537-1.19c0.965-2.118,1.922-4.24,2.891-6.357c0.01,0.096-0.002,0.188-0.01,0.28
		C705.502,63.644,705.367,65.46,705.234,67.276"/>
	<path clip-path="url(#SVGID_2_)" fill="#FFFFFF" d="M715.152,65.548c0.043,0.049,0.096,0.088,0.145,0.133
		c0.277,0.25,0.561,0.496,0.838,0.748c-0.018,0.052-0.047,0.096-0.07,0.143c-0.463,0.857-0.928,1.713-1.389,2.572
		c0.033,0.047,0.074,0.084,0.113,0.126c0.26,0.272,0.52,0.545,0.781,0.817c0.035,0.039,0.074,0.072,0.102,0.117
		c-0.848,0.895-1.572,1.719-2.418,2.613c0.018-0.085,0.336-0.408,0.063-0.227c0.309-0.771,0.525-1.481,0.83-2.254
		c-0.324-0.203-0.648-0.408-0.973-0.613c-0.051-0.032-0.105-0.061-0.152-0.1c0.561-0.8,1.125-1.597,1.688-2.396
		c0.029-0.046,0.068-0.089,0.094-0.14c-0.346-0.295-0.697-0.582-1.045-0.875c-0.143-0.121-0.289-0.233-0.426-0.359
		c0.16-0.162,0.326-0.318,0.49-0.477c0.879-0.849,1.754-1.699,2.635-2.545c-0.014,0.049-0.037,0.092-0.059,0.135
		C715.982,63.827,715.566,64.688,715.152,65.548"/>
	<path clip-path="url(#SVGID_2_)" fill="#FFFFFF" d="M727.391,70.845c0.025,0.039,0.064,0.062,0.096,0.092
		c0.191,0.166,0.387,0.328,0.572,0.498c-0.049,0.078-0.109,0.151-0.166,0.228c-1.051,1.396-2.104,2.789-3.152,4.185
		c0.012,0.043,0.041,0.068,0.063,0.1c0.154,0.208,0.309,0.417,0.463,0.625c0.02,0.029,0.047,0.051,0.055,0.094
		c-1.533,1.665-2.879,3.169-4.41,4.835c0.07-0.123,0.637-0.731,0.205-0.334c0.814-1.19,1.486-2.251,2.299-3.442
		c-0.271-0.08-0.541-0.162-0.813-0.244c-0.043-0.012-0.09-0.019-0.125-0.043c1.135-1.377,2.273-2.75,3.41-4.125
		c0.064-0.08,0.133-0.155,0.193-0.238c-0.246-0.186-0.498-0.362-0.746-0.545c-0.1-0.078-0.211-0.141-0.303-0.227
		c0.287-0.307,0.576-0.607,0.863-0.912c1.545-1.623,3.088-3.248,4.631-4.869c-0.045,0.072-0.098,0.142-0.148,0.211
		C729.383,68.103,728.387,69.474,727.391,70.845"/>
</g>
</svg>
